<?xml version="1.0" encoding="UTF-8"?>
<svg width="19px" height="16px" viewBox="0 0 19 16" version="1.1" xmlns="http://www.w3.org/2000/svg" xmlns:xlink="http://www.w3.org/1999/xlink">
    <!-- Generator: Sketch 47 (45396) - http://www.bohemiancoding.com/sketch -->
    <title>Icons / Sound / Green</title>
    <desc>Created with Sketch.</desc>
    <defs></defs>
    <g id="Symbols" stroke="none" stroke-width="1" fill="none" fill-rule="evenodd">
        <g id="Icons-/-Sound-/-Green" fill-rule="nonzero" fill="#27C79A">
            <path d="M15.3259425,15.3259053 C15.1737723,15.3259053 15.0216022,15.2606895 14.9129092,15.1519965 C14.6955233,14.912872 14.7172619,14.5650546 14.9346478,14.3476687 C16.6302579,12.7824901 17.6084945,10.4781994 17.6084945,8 C17.6084945,5.54353919 16.6302579,3.23924851 14.9346478,1.65233135 C14.6955233,1.43494544 14.6955233,1.08712798 14.9129092,0.848003472 C15.1302951,0.608878968 15.4781126,0.608878968 15.7172371,0.826264881 C17.6519717,2.60882937 18.7389013,5.21746032 18.7389013,8 C18.7389013,10.7825397 17.6302331,13.3911706 15.7172371,15.1737351 C15.5868056,15.2824281 15.456374,15.3259053 15.3259425,15.3259053 Z" id="Shape"></path>
            <path d="M9.78260169,0.478447421 L4.45664683,3.80445188 C4.36969246,3.86966766 4.2609995,3.89140625 4.13056796,3.89140625 L1.69584573,3.89140625 C0.891517857,3.89140625 0.26109871,4.41313244 0.26109871,5.04355159 L0.26109871,10.978187 C0.26109871,11.6086062 0.913256448,12.1303323 1.69584573,12.1303323 L4.13056796,12.1303323 C4.23926091,12.1303323 4.36969246,12.1520709 4.45664683,12.2172867 L9.78260169,15.5215526 C9.86955605,15.5867684 9.97824901,15.6085069 10.1086806,15.6085069 L10.6956225,15.6085069 C10.9999628,15.6085069 11.2173487,15.4128596 11.2173487,15.1737351 L11.2173487,0.826264881 C11.2173487,0.587140377 10.9782242,0.391493056 10.6956225,0.391493056 L10.1086806,0.391493056 C9.97824901,0.391493056 9.86955605,0.434970238 9.78260169,0.478447421 Z" id="Shape"></path>
            <path d="M13.6085937,12.7824901 C13.4564236,12.7824901 13.3259921,12.7172743 13.2172991,12.6085813 C12.9999132,12.3911954 12.9999132,12.0216394 13.2172991,11.8042535 C14.2172743,10.8042783 14.7607391,9.45648562 14.7607391,8.04347718 C14.7607391,6.60873016 14.1955357,5.2609375 13.1955605,4.2609623 C12.9781746,4.04357639 12.9781746,3.67402034 13.1955605,3.45663442 C13.4129464,3.23924851 13.7825025,3.23924851 13.9998884,3.45663442 C15.2172495,4.67399554 15.9128844,6.32612847 15.9128844,8.04347718 C15.9128844,9.76082589 15.2389881,11.3912202 14.0433656,12.6085813 C13.8911954,12.7172743 13.7607639,12.7824901 13.6085937,12.7824901 Z" id="Shape"></path>
        </g>
    </g>
</svg>