<?xml version="1.0" encoding="UTF-8"?>
<svg width="12px" height="16px" viewBox="0 0 12 16" version="1.1" xmlns="http://www.w3.org/2000/svg">
    <!-- Generator: Sketch 46.2 (44496) - http://www.bohemiancoding.com/sketch -->
    <title>Icons / Document</title>
    <desc>Created with Sketch.</desc>
    <defs></defs>
    <g id="Symbols" stroke="none" stroke-width="1" fill="none" fill-rule="evenodd">
        <g id="Icons-/-Document">
            <path d="M1,0 L8.09283208,0 L8.09283208,2.88657986e-15 C8.36102257,3.31371608e-15 8.61797337,0.107726071 8.80597886,0.298985253 L11.6803608,3.22311239 L11.6803608,3.22311239 C11.8641985,3.41013159 11.9672141,3.66188211 11.9672141,3.92412714 L11.9672141,14.9562854 L11.9672141,14.9562854 C11.9672141,15.5085702 11.5194988,15.9562854 10.9672141,15.9562854 L1,15.9562854 L1,15.9562854 C0.44771525,15.9562854 9.37667865e-16,15.5085702 -1.11022302e-16,14.9562854 L0,1 L0,1 C-6.76353751e-17,0.44771525 0.44771525,1.01453063e-16 1,0 Z" id="Rectangle-13" fill="#FFFFFF"></path>
            <path d="M1,0.7 C0.834314575,0.7 0.7,0.834314575 0.7,1 L0.7,14.9562854 C0.7,15.1219708 0.834314575,15.2562854 1,15.2562854 L10.9672141,15.2562854 C11.1328995,15.2562854 11.2672141,15.1219708 11.2672141,14.9562854 L11.2672141,3.92412714 C11.2672141,3.84545363 11.2363094,3.76992847 11.1811581,3.71382271 L8.30677612,0.789695576 C8.25037447,0.732317821 8.17328923,0.7 8.09283208,0.7 L1,0.7 Z" id="Rectangle-13" stroke="#27C79A" stroke-width="1.4"></path>
            <path d="M3.64890714,3.88788167 L6.04234995,3.88788167" id="Line" stroke="#27C79A" stroke-linecap="round"></path>
            <path d="M3.25,7.07913875 L8.75,7.07913875" id="Line" stroke="#27C79A" stroke-linecap="round"></path>
            <path d="M3.25,11.0791388 L8.75,11.0791388" id="Line" stroke="#27C79A" stroke-linecap="round"></path>
            <path d="M3.25,9.07913875 L8.75,9.07913875" id="Line" stroke="#27C79A" stroke-linecap="round"></path>
        </g>
    </g>
</svg>