<?xml version="1.0" encoding="UTF-8"?>
<svg width="19px" height="17px" viewBox="0 0 19 17" version="1.1" xmlns="http://www.w3.org/2000/svg">
    <!-- Generator: Sketch 46.2 (44496) - http://www.bohemiancoding.com/sketch -->
    <title>Icons / user</title>
    <desc>Created with Sketch.</desc>
    <defs></defs>
    <g id="Symbols" stroke="none" stroke-width="1" fill="none" fill-rule="evenodd">
        <g id="Icons-/-user" fill="#FFFFFF">
            <g id="User-icon" transform="translate(0.427757, 0.934373)">
                <path d="M12.2161929,8.79788402 C15.2234566,9.12260495 17.564689,11.6693512 17.564689,14.7629215 L17.564689,15.6090722 L0.836347082,15.6090722 L0.836347082,14.7629215 L0.836347082,14.7629215 C0.836347082,11.669312 3.1776388,9.12254046 6.18495744,8.79787168 C6.98037686,9.53101556 8.03879625,9.97815304 9.20063517,9.97815304 C10.3624676,9.97815304 11.4208298,9.53102058 12.2161929,8.79788402 Z" id="Combined-Shape"></path>
                <path d="M9.20061803,8.65633485 C7.09098267,8.65633485 5.380754,6.92948792 5.380754,4.79935327 C5.380754,2.66921862 7.09098267,0.942573635 9.20061803,0.942573635 C11.3102534,0.942573635 13.0202821,2.66921862 13.0202821,4.79935327 C13.0202821,6.92948792 11.3102534,8.65633485 9.20061803,8.65633485 Z" id="Fill-3"></path>
            </g>
        </g>
    </g>
</svg>