<?xml version="1.0" encoding="UTF-8"?>
<svg width="123px" height="43px" viewBox="0 0 123 43" version="1.1" xmlns="http://www.w3.org/2000/svg">
    <!-- Generator: Sketch 46.2 (44496) - http://www.bohemiancoding.com/sketch -->
    <title>logo</title>
    <desc>Created with Sketch.</desc>
    <defs>
        <linearGradient x1="0%" y1="0%" x2="0%" y2="100%" id="linearGradient-1">
            <stop stop-color="#7088A0" offset="0%"></stop>
            <stop stop-color="#506880" offset="100%"></stop>
        </linearGradient>
    </defs>
    <g id="Symbols" stroke="none" stroke-width="1" fill="none" fill-rule="evenodd">
        <g id="Footer" transform="translate(-46.000000, -20.000000)" fill-rule="nonzero" fill="#A4A09F">
            <g id="Group" transform="translate(46.000000, 18.500000)">
                <g id="logo" transform="translate(0.310322, 1.500000)">
                    <path d="M2.36766913,18.9745012 C2.45662982,19.1700425 4.53424845,23.7986133 4.53424845,25.1041997 C4.53424845,25.697481 4.30060587,26.1039049 4.09392347,26.4629714 C3.93576937,26.7402805 3.80547325,26.9684365 3.80547325,27.2271492 C3.80547325,27.3939295 3.86024939,27.574287 3.9950765,27.7867237 L4.51357811,28.550534 C5.41221553,29.8436772 6.16069502,30.9855075 6.16069502,31.6689886 C6.16069502,31.8115073 6.12835332,31.9315654 6.06005246,32.0326595 C5.75901733,32.4678602 5.24683705,32.7652306 4.87207228,32.9835897 C4.71481598,33.075522 4.52251408,33.1885605 4.48657069,33.2384381 C4.48604566,33.2496737 4.4849956,33.2587462 4.4849956,33.2714204 C4.4849956,33.3433964 4.50741429,33.4515049 4.5389107,33.5680295 C4.55865174,33.5708122 4.57760524,33.5725447 4.59735678,33.5725447 C5.51395015,33.6567907 6.89865821,33.7800042 7.4423769,33.5311673 C8.28620143,33.1435971 8.28620143,32.4416298 8.28620143,32.104247 C8.28620143,31.8440958 8.3473094,30.9690321 8.61689013,30.3747533 C8.7480893,30.0836884 8.90355,29.9299393 9.00598816,29.8271494 C9.09135766,29.7428614 9.10124393,29.7264176 9.10753377,29.6962232 C9.09582565,29.6301695 8.94578323,29.4171132 8.7462937,29.2521285 L8.43716789,28.986139 L8.7642654,28.7418961 C9.0419368,28.5326096 9.11921563,28.4147146 9.11921563,28.3009411 C9.11921563,28.241634 9.09763699,28.1837602 9.07248817,28.1177117 C9.07248817,28.1177117 9.04193155,28.0324367 9.04014646,28.0307251 L8.99704169,27.8962917 C8.86404692,27.5165392 8.75980792,27.1988974 8.75980792,26.9562821 C8.75980792,26.9089299 8.76348311,26.8671377 8.77324863,26.8264375 C8.81729845,26.5964806 9.04103901,26.4673501 9.37802804,26.2717983 C9.71321098,26.0752699 10.1751251,25.8084718 10.4159553,25.4564302 C10.4366414,25.4265982 10.448297,25.3848165 10.448297,25.3314316 C10.448297,24.7712271 9.27832528,23.0884083 8.87032625,22.5018998 L8.34553481,21.7262239 C8.15233511,21.4232987 8.08044307,21.1600865 8.08044307,20.9192563 C8.08044307,20.5369837 8.26286395,20.2168218 8.43180211,19.9227537 C8.62680265,19.5840689 8.81101912,19.2621114 8.81101912,18.7939442 C8.81101912,17.8352961 7.77135926,14.2784434 6.68224179,12.8474804 C5.83768223,11.7340017 3.24068519,9.79391929 0.121495607,10.1059958 L0.121495607,16.4877075 C1.68235047,17.3540557 2.36803665,18.951925 2.37606957,18.9743437 M0.102699615,0.652976955 L0.102699615,9.44981613 C3.64768667,9.10052045 6.10901655,11.0950954 7.19004859,12.3432963 C7.89636836,13.1608169 9.44199741,17.4689318 9.44199741,18.7932616 C9.44199741,19.4337954 9.18409331,19.8852668 8.9765131,20.2450683 C8.82914308,20.5034239 8.71322221,20.7069561 8.71322221,20.9168937 C8.71322221,21.0586932 8.76441241,21.2037321 8.87137631,21.3704284 L9.38987791,22.1321386 C10.3073113,23.4548409 11.0684965,24.6120019 11.0684965,25.3583813 C11.0684965,25.5405344 11.0235541,25.6967984 10.9363995,25.8259342 C10.6102051,26.2969891 10.0781892,26.6073855 9.68825116,26.8337249 C9.61097233,26.8775752 9.47168773,26.9600676 9.3971023,27.0113785 C9.42046603,27.1854357 9.54357452,27.5420765 9.59389843,27.6849891 L9.63968085,27.8187031 L9.66572222,27.8906792 C9.70525681,27.9952752 9.75738156,28.1352791 9.75738156,28.3052043 C9.75738156,28.5477461 9.64235849,28.7815567 9.41860218,29.0111566 C9.58664255,29.2038207 9.74569969,29.4492344 9.74569969,29.6994679 L9.74044941,29.7788206 C9.70364497,30.037801 9.56611921,30.1754685 9.45469258,30.2870789 C9.36572664,30.3741495 9.28126018,30.459792 9.19768627,30.6437355 C9.01976488,31.0354429 8.92540691,31.7427759 8.92540691,32.10368 C8.92540691,32.4634867 8.92540691,33.5597393 7.70151483,34.1195764 C7.0491154,34.4204015 5.80810742,34.3343967 4.74959906,34.2403327 L4.75952209,34.2663059 C4.79632653,34.3624857 4.83949956,34.4776243 4.83949956,34.6155805 C4.83949956,34.8065331 4.75053886,35.0406587 4.42614,35.3179626 C4.58789053,35.4734601 4.82781769,35.7507692 4.82781769,36.0101591 C4.82781769,36.0252484 4.82571758,36.0473626 4.8241425,36.0621054 C4.79631603,36.2604346 4.69114773,36.3650358 4.59050517,36.4657782 C4.49794804,36.5577368 4.39281124,36.6623538 4.29575987,36.8764758 C4.09896373,37.311036 4.0064066,38.0506478 4.0064066,38.413967 C4.0064066,38.7800845 4.0064066,39.75137 2.89124776,40.262117 C2.30174665,40.5338556 1.12998982,40.4583723 0.109125954,40.3699524 L0.109125954,42.3279382 L16.1949247,42.3279382 L16.1949247,0.651764141 L0.109125954,0.651764141 M2.77689672,40.0094159 C3.72856194,39.5748452 3.72856194,38.7586949 3.72856194,38.4140667 C3.72856194,38.0999059 3.80584077,37.2848371 4.04307453,36.7607545 C4.16169404,36.5027611 4.29558661,36.3665584 4.39443357,36.2686303 C4.4905819,36.1717521 4.53461597,36.1247097 4.54899648,36.0253639 C4.57057512,35.8726701 4.30816627,35.5725485 4.123052,35.4187994 L3.9864608,35.3059342 L4.12664319,35.2006294 C4.66133141,34.8004585 4.58134344,34.5894972 4.49597393,34.3644703 L4.46541732,34.2809279 L4.44299864,34.2131783 L4.42057995,34.1454287 C4.34239808,33.9232265 4.27500552,33.7189382 4.23367009,33.5413319 C4.19954329,33.3931743 4.18426498,33.2668316 4.20311348,33.1738282 C4.23272504,33.0267259 4.41608572,32.9204183 4.71981949,32.7424077 C5.07207633,32.5381562 5.55461354,32.2576969 5.81885999,31.8743269 C6.13516818,31.3984208 4.96337984,29.7133654 4.26603805,28.7054697 L3.74032781,27.9339415 C3.30180367,27.2473102 3.55970778,26.7994616 3.83198715,26.3237865 C4.03057887,25.9770057 4.23636348,25.6185693 4.23636348,25.1022571 C4.23636348,23.8557888 2.11561908,19.1347922 2.0913103,19.0817644 C2.05450585,18.9929822 1.45508173,17.6029188 0.0927923422,16.7921186 L0.0927923422,40.0896979 C1.04976034,40.1746579 2.2297076,40.2546826 2.76623341,40.0079196" id="symbol"></path>
                    <path d="M72.9156417,42.527244 C70.6655305,42.527244 69.2439129,41.0863055 69.2439129,39.0328696 L69.2439129,33.1903613 C69.2439129,31.137188 70.6655305,29.6958819 72.9156417,29.6958819 L74.219548,29.6958819 C75.8567944,29.6958819 76.7455613,30.3677599 77.33774,31.2958514 C77.5147689,31.5910429 77.7133606,31.9069311 77.7133606,32.0259549 C77.7133606,32.084905 77.673826,32.1248911 77.5947411,32.1635384 L76.0149852,32.9737086 C75.9377064,33.0133325 75.8568311,33.0726449 75.7786493,33.0726449 C75.7193421,33.0726449 75.660035,33.0319395 75.6195974,32.9339851 C75.2745281,32.0842802 74.7641172,31.7686861 74.2321591,31.7686861 L72.9282528,31.7686861 C72.1590348,31.7686861 71.5066353,32.4208755 71.5066353,33.1899886 L71.5066353,39.0324968 C71.5066353,39.8022925 72.1590348,40.4541144 72.9282528,40.4541144 L73.8951439,40.4541144 C74.6859406,40.4541144 75.2969678,39.822296 75.2969678,39.0324968 L75.2969678,38.1047729 C75.2969678,37.9671684 75.2376607,37.9075042 75.0992739,37.9075042 L73.244561,37.9075042 C73.1061742,37.9075042 73.0468671,37.8478296 73.0468671,37.7109234 L73.0468671,36.0330398 C73.0468671,35.89438 73.1061742,35.8354194 73.244561,35.8354194 L77.3710163,35.8354194 C77.5085053,35.8354194 77.5678124,35.8943905 77.5678124,36.0330398 L77.5678124,39.0325231 C77.5678124,41.085959 76.1272939,42.5268975 73.8951386,42.5268975 L72.9282476,42.5268975 L72.9156417,42.527244 Z M64.4758266,37.9284948 C64.6133156,37.9284948 64.6914975,37.8484701 64.6914975,37.7491244 C64.6914975,37.6722603 64.6339859,37.4939347 64.5935483,37.3752942 L64.018433,35.0662223 C63.9788984,34.9275782 63.8414094,34.1388659 63.8018695,33.98057 L63.7416961,33.98057 C63.7021615,34.1388764 63.5449,34.9079265 63.5053601,35.0662223 L62.9131814,37.3556056 C62.8727018,37.4942654 62.8152322,37.6725806 62.8152322,37.7494499 C62.8152322,37.8487956 62.8934088,37.9288204 63.0317956,37.9288204 L64.4731542,37.9288204 L64.4758266,37.9284948 Z M59.3833729,42.3302746 C59.2449913,42.3302746 59.1650139,42.2706 59.1650139,42.1712647 C59.1650139,42.0929831 59.224321,41.9757497 59.2638608,41.8167345 L62.8574654,30.0319627 C62.8754214,29.9330265 62.9545168,29.8943844 63.0542616,29.8943844 L64.4758791,29.8943844 C64.5738283,29.8943844 64.6529079,29.9330265 64.6726752,30.0319627 L68.259927,41.8162095 C68.2976765,41.9345035 68.3569784,42.0924633 68.3569784,42.1707397 C68.3569784,42.2700749 68.2787965,42.3297496 68.1413075,42.3297496 L66.1472523,42.3297496 C66.0484001,42.3297496 65.9702234,42.2900785 65.9486553,42.1917933 L65.3564766,40.1183014 C65.3385206,40.0207197 65.2576296,40.0007057 65.1596804,40.0007057 L62.338024,40.0007057 C62.2391771,40.0007057 62.1583018,40.0207197 62.1394271,40.1183014 L61.5472483,42.1917933 C61.5283473,42.2900785 61.4475035,42.3297496 61.3495544,42.3297496 L59.3770778,42.3297496 L59.3833729,42.3302746 Z M51.3488792,42.3304846 C51.2113954,42.3304846 51.1529861,42.27081 51.1529861,42.1328642 L51.1529861,30.0903038 C51.1529861,29.9516439 51.2114322,29.8934131 51.3488792,29.8934131 L53.2251707,29.8934131 C53.3635575,29.8934131 53.4228646,29.9516439 53.4228646,30.0903038 L53.4228646,40.0590048 C53.4228646,40.1976488 53.482177,40.257334 53.6205586,40.257334 L58.3176664,40.257334 C58.4551554,40.257334 58.5153603,40.3163051 58.5153603,40.4539096 L58.5153603,42.1317931 C58.5153603,42.2697389 58.4551187,42.3294136 58.3176664,42.3294136 L51.3704998,42.3294136 L51.3488792,42.3304846 Z M45.4177357,34.985326 C46.1869538,34.985326 46.8384082,34.3345542 46.8384082,33.5647061 L46.8384082,33.3863857 C46.8384082,32.6170101 46.1869013,31.9651357 45.4177357,31.9651357 L43.2458011,31.9651357 C43.1083121,31.9651357 43.049005,32.0248051 43.049005,32.1623833 L43.049005,34.7879944 C43.049005,34.9259507 43.1083121,34.985263 43.2458011,34.985263 L45.4177357,34.985263 L45.4177357,34.985326 Z M40.9750038,42.3288885 C40.8384178,42.3288885 40.7782077,42.2692139 40.7782077,42.1312681 L40.7782077,30.0897577 C40.7782077,29.9510979 40.8384546,29.8928671 40.9750038,29.8928671 L45.4177357,29.8928671 C47.6670069,29.8928671 49.0885194,31.3330706 49.0885194,33.5645433 L49.0885194,33.7614602 C49.0885194,34.7682008 48.2402322,35.9332373 47.4898626,36.4453493 C47.4296891,36.4857135 47.4116807,36.5253898 47.4116807,36.6043697 C47.4116807,36.6640391 47.4502702,36.7623243 47.5096299,36.9202841 L49.2070969,41.854967 C49.2475241,41.9925715 49.3068417,42.1112068 49.3068417,42.1698366 C49.3068417,42.2691719 49.2475346,42.3288465 49.10825,42.3288465 L47.0756052,42.3288465 C46.9956277,42.3288465 46.9174511,42.2691719 46.8976786,42.1908903 L45.1606769,37.1776107 C45.1408834,37.0975702 45.0806994,37.0582614 45.0025176,37.0582614 L43.2456699,37.0582614 C43.1081809,37.0582614 43.0488737,37.116886 43.0488737,37.254837 L43.0488737,42.1312419 C43.0488737,42.2691876 42.9895613,42.3288623 42.8502767,42.3288623 L40.9748253,42.3288623 L40.9750038,42.3288885 Z M34.886079,40.4539359 C35.6759832,40.4539359 36.2861179,39.8221175 36.2861179,39.0323183 L36.2861179,33.1898101 C36.2861179,32.4003784 35.6759832,31.7685076 34.886079,31.7685076 L33.9173504,31.7685076 C33.1481323,31.7685076 32.4966779,32.420697 32.4966779,33.1898101 L32.4966779,39.0323183 C32.4966779,39.802114 33.1481848,40.4539359 33.9173504,40.4539359 L34.886079,40.4539359 Z M33.920028,42.5267452 C31.6707568,42.5267452 30.2492443,41.0858067 30.2492443,39.0323708 L30.2492443,33.1898626 C30.2492443,31.1366892 31.6708618,29.6953832 33.920028,29.6953832 L34.8887566,29.6953832 C37.1191268,29.6953832 38.5595403,31.1366892 38.5595403,33.1898626 L38.5595403,39.0323708 C38.5542901,41.0857542 37.1157142,42.5269552 34.8843464,42.5269552 L33.9156178,42.5269552 L33.920028,42.5267452 Z M22.0379161,42.3297653 C21.8995293,42.3297653 21.8402221,42.2700907 21.8402221,42.1321449 L21.8402221,30.0906345 C21.8402221,29.9519747 21.8995293,29.8937439 22.0379161,29.8937439 L29.0066088,29.8937439 C29.1440978,29.8937439 29.2025071,29.9519747 29.2025071,30.0906345 L29.2025071,31.7685181 C29.2025071,31.9064586 29.1441345,31.965855 29.0066088,31.965855 L24.3078208,31.965855 C24.1712296,31.965855 24.1110247,32.0255244 24.1110247,32.1631026 L24.1110247,34.7887137 C24.1110247,34.9266699 24.1712664,34.9859823 24.3078208,34.9859823 L28.1574815,34.9859823 C28.2958683,34.9859823 28.3542776,35.0449587 28.3542776,35.1836028 L28.3542776,36.8624838 C28.3542776,36.9993901 28.295905,37.0590595 28.1574815,37.0590595 L24.3078208,37.0590595 C24.1712296,37.0590595 24.1110247,37.1176841 24.1110247,37.2556351 L24.1110247,42.1320399 C24.1110247,42.2699857 24.0526521,42.3296603 23.9133308,42.3296603 L22.0378793,42.3296603 L22.0379161,42.3297653 Z M113.712967,27.7433407 C113.576375,27.7433407 113.516171,27.6836713 113.516171,27.54645 L113.516171,15.5049396 C113.516171,15.3659228 113.576339,15.3066104 113.712967,15.3066104 L115.589258,15.3066104 C115.726747,15.3066104 115.787855,15.3659176 115.787855,15.5049396 L115.787855,19.8866633 C115.787855,20.0253232 115.86693,20.1243434 115.965777,20.1243434 C116.023288,20.1243434 116.083498,20.0836327 116.142805,20.0057291 L119.655451,15.3855378 C119.694985,15.3461765 119.755195,15.3065474 119.814503,15.3065474 L122.083462,15.3065474 C122.222747,15.3065474 122.300031,15.3658545 122.300031,15.4651478 C122.300031,15.5048661 122.28113,15.5641733 122.241585,15.6224041 L118.531267,20.2222243 C118.444999,20.319995 118.380295,20.3990694 118.380295,20.4781491 C118.380295,20.5378185 118.420775,20.5975719 118.498914,20.7355124 L122.545408,27.2889082 C122.625385,27.4265757 122.683795,27.5055661 122.683795,27.584819 C122.683795,27.6827682 122.604715,27.7424376 122.467226,27.7424376 L120.157787,27.7424376 C120.097545,27.7424376 120.039167,27.7024515 119.99873,27.6444884 L116.900331,22.689172 C116.841024,22.6094623 116.781717,22.5505122 116.722404,22.5505122 C116.663097,22.5505122 116.604688,22.5912228 116.563353,22.6494484 L115.933424,23.4983132 C115.834577,23.63733 115.776168,23.774546 115.776168,23.9725077 L115.776168,27.5455312 C115.776168,27.6827525 115.71506,27.7424219 115.577571,27.7424219 L113.70128,27.7424219 L113.712967,27.7433407 Z M107.048654,27.9415649 C105.40957,27.9415649 104.52264,27.2697394 103.928676,26.3420155 C103.756142,26.0458316 103.554857,25.7295182 103.554857,25.6115969 C103.554857,25.5521953 103.593446,25.5122092 103.672573,25.4729371 L105.251384,24.6638169 C105.332259,24.6240986 105.410441,24.5644292 105.488618,24.5644292 C105.54793,24.5644292 105.607237,24.6051398 105.646777,24.703089 C106.002625,25.5521638 106.51575,25.8681255 107.049494,25.8681255 L107.83756,25.8681255 C108.608563,25.8681255 109.259178,25.2159361 109.259178,24.4468755 C109.259178,23.3811217 108.213217,22.9859334 107.148356,22.4926174 C105.588341,21.7413552 103.870188,20.93192 103.870188,18.6034221 C103.870188,16.5499863 105.291806,15.1089427 107.542862,15.1089427 L107.860068,15.1089427 C109.497367,15.1089427 110.386081,15.7794031 110.977315,16.7085446 C111.14985,17.0040092 111.35114,17.3196244 111.35114,17.4382281 C111.35114,17.4969105 111.31255,17.5376159 111.232521,17.5758117 L109.65455,18.3852994 C109.576373,18.4246607 109.496396,18.4839678 109.418214,18.4839678 C109.357972,18.4839678 109.298702,18.4446065 109.259162,18.3467466 C108.906905,17.4977243 108.389296,17.1821301 107.857338,17.1821301 L107.540127,17.1821301 C106.771801,17.1821301 106.118509,17.8343196 106.118509,18.6037476 C106.118509,19.6097532 107.263332,19.9060264 108.409048,20.4389295 C109.909734,21.130391 111.508339,22.0575374 111.508339,24.4466235 C111.508339,26.4996918 110.086721,27.9409978 107.835665,27.9409978 L107.047598,27.9409978 L107.048654,27.9415649 Z M99.4929746,27.7430886 C99.3563834,27.7430886 99.2961784,27.6834193 99.2961784,27.546198 L99.2961784,15.5046876 C99.2961784,15.3656708 99.3563466,15.3063584 99.4929746,15.3063584 L101.369266,15.3063584 C101.507648,15.3063584 101.56696,15.3656655 101.56696,15.5046876 L101.56696,27.546198 C101.56696,27.6834193 101.507648,27.7430886 101.369266,27.7430886 L99.4929746,27.7430886 L99.4929746,27.7430886 Z M92.5342574,27.9415019 C90.2832536,27.9415019 88.8615836,26.5001958 88.8615836,24.4471275 L88.8615836,18.6046192 C88.8615836,16.5511833 90.2832011,15.1101398 92.5342574,15.1101398 L93.8354335,15.1101398 C95.473625,15.1101398 96.3641245,15.7806002 96.9554107,16.7097417 C97.1324395,17.0049333 97.3301334,17.320874 97.3301334,17.4394777 C97.3301334,17.4981601 97.2905989,17.5388655 97.2124117,17.5770612 L95.6326559,18.3865489 C95.5526784,18.4259103 95.473604,18.4852174 95.3963199,18.4852174 C95.3370128,18.4852174 95.2777056,18.4458561 95.2381658,18.3479962 C94.8814147,17.4981863 94.3682999,17.1829597 93.8354493,17.1829597 L92.5342731,17.1829597 C91.765055,17.1829597 91.1126556,17.8351491 91.1126556,18.6045772 L91.1126556,24.4476105 C91.1126556,25.2166711 91.765055,25.8688605 92.5342731,25.8688605 L93.5011642,25.8688605 C94.2901758,25.8688605 94.9021481,25.2370422 94.9021481,24.4476105 L94.9021481,23.518469 C94.9021481,23.3811585 94.8419064,23.3214943 94.7044541,23.3214943 L92.8497413,23.3214943 C92.7104567,23.3214943 92.6520473,23.2621872 92.6520473,23.1231651 L92.6520473,21.4466992 C92.6520473,21.3080393 92.7104199,21.2487322 92.8497413,21.2487322 L96.9761965,21.2487322 C97.1136855,21.2487322 97.1720949,21.3080393 97.1720949,21.4466992 L97.1720949,24.4469175 C97.1720949,26.4999858 95.7325214,27.9412919 93.5013112,27.9412919 L92.5344201,27.9412919 L92.5342574,27.9415019 Z M83.1022974,25.86801 C83.8922016,25.86801 84.5023363,25.2361916 84.5023363,24.44676 L84.5023363,18.6042517 C84.5023363,17.8134024 83.8921491,17.1826342 83.1022974,17.1826342 L82.1345139,17.1826342 C81.3644557,17.1826342 80.7128964,17.8348236 80.7128964,18.6042517 L80.7128964,24.447285 C80.7128964,25.2163456 81.3644032,25.868535 82.1345139,25.868535 L83.1022974,25.868535 L83.1022974,25.86801 Z M82.1345139,27.9411343 C79.8844026,27.9411343 78.4627851,26.4998283 78.4627851,24.44676 L78.4627851,18.6032016 C78.4627851,16.5497658 79.8844026,15.1087222 82.1345139,15.1087222 L83.1022974,15.1087222 C85.3326676,15.1087222 86.7740262,16.5497133 86.7740262,18.6032016 L86.7740262,24.4462349 C86.7740262,26.4993033 85.3326676,27.9406093 83.1022974,27.9406093 L82.1345139,27.9406093 L82.1345139,27.9411343 Z M70.3350413,27.7423379 C70.1975523,27.7423379 70.1382451,27.6826685 70.1382451,27.5454472 L70.1382451,15.5039368 C70.1382451,15.36492 70.1975523,15.3056076 70.3350413,15.3056076 L72.2104927,15.3056076 C72.3488795,15.3056076 72.4081867,15.3649147 72.4081867,15.5039368 L72.4081867,25.4721128 C72.4081867,25.6107726 72.4684336,25.6697227 72.604988,25.6697227 L77.303776,25.6697227 C77.4412597,25.6697227 77.4996691,25.7286729 77.4996691,25.8673327 L77.4996691,27.5452162 C77.4996691,27.6824374 77.441223,27.7421068 77.303776,27.7421068 L70.3350833,27.7421068 L70.3350413,27.7423379 Z M64.2389866,25.8673904 C65.0288908,25.8673904 65.6399705,25.2355721 65.6399705,24.4461404 L65.6399705,18.6036321 C65.6399705,17.8127829 65.0288908,17.1820146 64.2389866,17.1820146 L63.271203,17.1820146 C62.5019849,17.1820146 61.8495855,17.834204 61.8495855,18.6036321 L61.8495855,24.4466655 C61.8495855,25.215726 62.5019849,25.8679155 63.271203,25.8679155 L64.2389866,25.8679155 L64.2389866,25.8673904 Z M63.271203,27.9405148 C61.0219318,27.9405148 59.5994743,26.4992088 59.5994743,24.4461404 L59.5994743,18.6025821 C59.5994743,16.5491462 61.0220368,15.1081027 63.271203,15.1081027 L64.2389866,15.1081027 C66.4703018,15.1081027 67.9107153,16.5490937 67.9107153,18.6025821 L67.9107153,24.4456154 C67.9107153,26.4986837 66.4701968,27.9399898 64.2389866,27.9399898 L63.271203,27.9399898 L63.271203,27.9405148 Z M49.796367,27.7417183 C49.6597811,27.7417183 49.6013665,27.6820489 49.6013665,27.5448277 L49.6013665,15.5033173 C49.6013665,15.3643005 49.6598126,15.3049881 49.796367,15.3049881 L51.6718185,15.3049881 C51.8120061,15.3049881 51.8704155,15.3642952 51.8704155,15.5033173 L51.8704155,19.885041 C51.8704155,20.0237008 51.9503929,20.1227211 52.0492399,20.1227211 C52.107686,20.1227211 52.1669564,20.0820104 52.2262635,20.0041068 L55.7398539,15.3839155 C55.7793885,15.3445542 55.8387008,15.3049251 55.8971102,15.3049251 L58.167015,15.3049251 C58.3054018,15.3049251 58.3844814,15.3642322 58.3844814,15.4635255 C58.3844814,15.5032438 58.3655804,15.5625509 58.3260353,15.6207817 L54.614772,20.220602 C54.5347945,20.3185511 54.4754874,20.3978933 54.4754874,20.4767997 C54.4754874,20.5364691 54.515967,20.5962225 54.5941017,20.7341631 L58.6405952,27.2875589 C58.7214705,27.4252264 58.778982,27.5042168 58.778982,27.5834697 C58.778982,27.6814189 58.6999023,27.7410883 58.5624133,27.7410883 L56.252974,27.7410883 C56.1936668,27.7410883 56.1343544,27.7011022 56.0939168,27.6431391 L52.9963584,22.6878227 C52.937046,22.6081129 52.8768411,22.5491628 52.8175339,22.5491628 C52.7573605,22.5491628 52.6998122,22.5898735 52.6593746,22.6480991 L52.0285538,23.4969638 C51.9306046,23.6359807 51.8703997,23.7731967 51.8703997,23.9711584 L51.8703997,27.5441819 C51.8703997,27.6814031 51.8119536,27.7410725 51.671808,27.7410725 L49.7963565,27.7410725 L49.796367,27.7417183 Z M42.8948673,27.7415251 C42.7555827,27.7415251 42.6962756,27.6818557 42.6962756,27.5446345 L42.6962756,22.3337345 C42.6962756,22.1356783 42.6773746,22.0367473 42.5596844,21.7994138 L39.3417896,15.7789211 C39.2367841,15.6418889 39.1737807,15.5426587 39.1737807,15.4639045 C39.1737807,15.3646113 39.2519574,15.3053042 39.3903442,15.3053042 L41.5811798,15.3053042 C41.662055,15.3053042 41.7195666,15.3646113 41.7600042,15.4242807 L43.6345106,19.2928948 C43.6749903,19.3921881 43.7531301,19.4514952 43.8115395,19.4514952 C43.8708466,19.4514952 43.9517219,19.3921881 43.9903639,19.2928948 L45.8594625,15.4252782 C45.8999422,15.3656088 45.9583095,15.3063017 46.0364914,15.3063017 L48.208426,15.3063017 C48.3459097,15.3063017 48.4258872,15.3656088 48.4258872,15.4649021 C48.4258872,15.5438925 48.3459097,15.6618767 48.2866026,15.7797769 L45.0695478,21.8002696 C44.9707009,21.9985988 44.931161,22.1165831 44.931161,22.3535438 L44.931161,27.5454378 C44.931161,27.682659 44.872715,27.7423284 44.7352627,27.7423284 L42.8589712,27.7423284 L42.8948673,27.7415251 Z M33.9655269,27.9397598 C32.3273355,27.9397598 31.4404062,27.2679344 30.8473349,26.3402104 C30.6748055,26.0440265 30.4735152,25.7277131 30.4735152,25.6097919 C30.4735152,25.5503902 30.5122097,25.5104041 30.5903338,25.4711321 L32.1700897,24.6620119 C32.2491694,24.6222935 32.328249,24.5626241 32.4064257,24.5626241 C32.4657328,24.5626241 32.5241421,24.6033348 32.5645798,24.7012839 C32.9195352,25.5503587 33.4344457,25.8663204 33.9664037,25.8663204 L34.7553629,25.8663204 C35.526366,25.8663204 36.1769804,25.214131 36.1769804,24.4450704 C36.1769804,23.3793167 35.1310202,22.9841283 34.0652139,22.4908123 C32.5051991,21.7407052 30.7879385,20.9309025 30.7879385,18.6022471 C30.7879385,16.5488113 32.208611,15.1077677 34.4596673,15.1077677 L34.7777763,15.1077677 C36.4141301,15.1077677 37.301952,15.7782281 37.8941832,16.7073696 C38.0721046,17.0025612 38.2689008,17.3185019 38.2689008,17.4371056 C38.2689008,17.495788 38.2302062,17.5364934 38.1502865,17.5746892 L36.5732083,18.3841769 C36.4941339,18.4235382 36.4141564,18.4828453 36.3359745,18.4828453 C36.2766674,18.4828453 36.2164572,18.443484 36.1769226,18.3456241 C35.8102853,17.4959192 35.2998638,17.1803251 34.7679058,17.1803251 L34.4497967,17.1803251 C33.6805786,17.1803251 33.0281792,17.8325145 33.0281792,18.6019426 C33.0281792,19.6079482 34.1739472,19.9042213 35.3187176,20.4371244 C36.8184592,21.1285859 38.4180086,22.0557323 38.4180086,24.4448184 C38.4180086,26.4978867 36.9954461,27.9391928 34.7453348,27.9391928 L33.9611009,27.9391928 L33.9655269,27.9397598 Z M26.0615341,20.3976949 C26.8307522,20.3976949 27.4831516,19.746818 27.4831516,18.9774424 L27.4831516,18.7990695 C27.4831516,18.0296939 26.8307522,17.377452 26.0615341,17.377452 L24.2840528,17.377452 C24.1474669,17.377452 24.0872567,17.4371214 24.0872567,17.5746997 L24.0872567,20.2007307 C24.0872567,20.3383142 24.1475036,20.3977054 24.2840528,20.3977054 L26.0615341,20.3977054 L26.0615341,20.3976949 Z M22.0142006,27.7412574 C21.8758138,27.7412574 21.8165066,27.681588 21.8165066,27.5443667 L21.8165066,15.5028563 C21.8165066,15.3638395 21.8758138,15.3045271 22.0142006,15.3045271 L26.0615341,15.3045271 C28.3116453,15.3045271 29.7323178,16.7654692 29.7323178,18.9772534 C29.7323178,20.930619 28.3116453,22.4702627 26.0615341,22.4702627 L24.2840528,22.4702627 C24.1474669,22.4702627 24.0872567,22.5299321 24.0872567,22.6675104 L24.0872567,27.5439152 C24.0872567,27.6811364 24.0288841,27.7408058 23.8895628,27.7408058 L22.0141113,27.7408058 L22.0142006,27.7412574 Z M61.7256317,13.1555362 C61.5899436,13.1555362 61.5297334,13.0958668 61.5297334,12.9585616 L61.5297334,0.917051189 C61.5297334,0.778391373 61.5899803,0.719084243 61.7256317,0.719084243 L63.6019232,0.719084243 C63.74031,0.719084243 63.800515,0.778391373 63.800515,0.917051189 L63.800515,5.29924742 C63.800515,5.43683093 63.8795946,5.53548889 63.9784416,5.53548889 C64.0368877,5.53548889 64.0961581,5.49612966 64.1554704,5.41678537 L67.6690608,0.798484183 C67.7085954,0.758855092 67.7688109,0.719131496 67.8272202,0.719131496 L70.0961799,0.719131496 C70.2354645,0.719131496 70.3136464,0.778438625 70.3136464,0.877469351 C70.3136464,0.917098442 70.2947454,0.97676259 70.2552738,1.03508792 L66.5314098,5.63511814 C66.4523301,5.73414362 66.3939208,5.8124095 66.3939208,5.89176219 C66.3939208,5.95106932 66.4344004,6.00930014 66.5125351,6.14795995 L70.5580835,12.7018808 C70.6389588,12.8398213 70.6964703,12.9191635 70.6964703,12.9967101 C70.6964703,13.0960978 70.6173907,13.155762 70.4799069,13.155762 L68.1704675,13.155762 C68.1102994,13.155762 68.0527511,13.1160436 68.0123135,13.0578128 L64.913915,8.10244384 C64.8537415,8.02345342 64.7952955,7.96378402 64.7350905,7.96378402 C64.6757834,7.96378402 64.6173688,8.00448942 64.5769312,8.06280949 L63.9461104,8.91151678 C63.8454678,9.0502606 63.7807687,9.18757109 63.7807687,9.38598431 L63.7807687,12.9587453 C63.7807687,13.0960506 63.7205952,13.15572 63.5821717,13.15572 L61.7058802,13.15572 L61.7256317,13.1555362 Z M55.0616546,13.3523429 C53.4217306,13.3523429 52.5347488,12.6818825 51.9407849,11.7538435 C51.7637613,11.4575756 51.5669652,11.1419762 51.5669652,11.02374 C51.5669652,10.9647899 51.6055547,10.9250715 51.6846817,10.8850802 L53.2634925,10.07596 C53.3443677,10.0366931 53.4216518,9.97702375 53.4998284,9.97702375 C53.5591408,9.97702375 53.6193457,10.0170099 53.6579878,10.1156836 C54.0138358,10.9647584 54.5269611,11.2806675 55.0615968,11.2806675 L55.8496634,11.2806675 C56.6197216,11.2806675 57.2703359,10.6287931 57.2703359,9.85868251 C57.2703359,8.79371631 56.2252157,8.39805543 55.1585695,7.90489691 C53.5994472,7.15436981 51.881294,6.34461958 51.881294,4.01633173 C51.8707935,1.96237085 53.2936185,0.521432314 55.5459874,0.521432314 L55.8613978,0.521432314 C57.4995892,0.521432314 58.3891437,1.19189269 58.9805349,2.1206667 C59.1584615,2.41585828 59.3543599,2.73174644 59.3543599,2.85077022 C59.3543599,2.90900105 59.3156653,2.95006346 59.2366381,2.98871075 L57.6578273,3.79783095 C57.57156,3.8390955 57.4924804,3.8973237 57.4134059,3.8973237 C57.353159,3.8973237 57.2938886,3.85733549 57.2543488,3.75974019 C56.902092,2.90956283 56.3916758,2.59470371 55.8525248,2.59470371 L55.5371092,2.59470371 C54.7678911,2.59470371 54.1154917,3.24547555 54.1154917,4.01600621 C54.1154917,5.02237931 55.2593695,5.31865245 56.4051375,5.85103054 C57.9058242,6.54259703 59.503536,7.46995346 59.503536,9.85825198 C59.503536,11.9121079 58.0828635,13.3519963 55.8327523,13.3519963 L55.0446857,13.3519963 L55.0616546,13.3523429 Z M41.5598742,13.1545334 C41.4214874,13.1545334 41.3621802,13.094864 41.3621802,12.9575588 L41.3621802,0.916573414 C41.3621802,0.777913598 41.4214874,0.718606468 41.5598742,0.718606468 L43.2169141,0.718606468 C43.2977894,0.718606468 43.3561987,0.758324814 43.3939429,0.817994212 L46.9281669,7.29263586 C47.0072466,7.43129567 47.2840202,8.14108062 47.3424295,8.29874644 L47.4233048,8.27906316 C47.3801475,7.80531491 47.2939012,4.96246315 47.2939012,3.40244833 L47.2939012,0.916337152 C47.2939012,0.777677335 47.3550092,0.718370206 47.493396,0.718370206 L49.3481089,0.718370206 C49.4882913,0.718370206 49.5458028,0.777677335 49.5458028,0.916337152 L49.5458028,12.9578475 C49.5458028,13.095158 49.4882913,13.1548222 49.3481089,13.1548222 L47.71081,13.1548222 C47.6299347,13.1548222 47.5724232,13.1151038 47.5328886,13.056873 L44.0031273,6.62055839 C43.9240477,6.4833214 43.6436829,5.77185111 43.5861713,5.61460531 L43.5070917,5.63419515 C43.5466262,6.10776488 43.6257112,8.95000761 43.6257112,10.5102849 L43.6257112,12.9579641 C43.6257112,13.0952746 43.5672651,13.1549387 43.4271142,13.1549387 L41.5535528,13.1549387 L41.5598742,13.1545334 Z M36.3119387,8.75310647 C36.4485299,8.75310647 36.5276096,8.67411605 36.5276096,8.57482281 C36.5276096,8.4969087 36.4691635,8.31961734 36.4287627,8.19920224 L35.8608402,5.89154797 C35.818838,5.75288816 35.6770805,4.96350901 35.6403286,4.80652572 L35.5800869,4.80652572 C35.5405523,4.963425 35.3823877,5.73424967 35.3428531,5.89191549 L34.7515669,8.18192883 C34.7110873,8.32058865 34.6527199,8.49788 34.6527199,8.57579411 C34.6527199,8.67508735 34.7317996,8.75407777 34.8701864,8.75407777 L36.311545,8.75407777 L36.3119387,8.75310647 Z M31.2222152,13.1548862 C31.0829306,13.1548862 31.0029531,13.0952168 31.0029531,12.9958291 C31.0029531,12.9182772 31.0631265,12.800293 31.1026979,12.6420497 L34.6899497,0.857277835 C34.7079056,0.758341615 34.787001,0.718618019 34.8867458,0.718618019 L36.3083633,0.718618019 C36.4063125,0.718618019 36.4853869,0.758336365 36.5042616,0.857277835 L40.0987063,12.6420497 C40.1364558,12.7595876 40.1966555,12.9182825 40.1966555,12.9958291 C40.1966555,13.0952168 40.1184788,13.1548862 39.9809898,13.1548862 L37.9860946,13.1548862 C37.8872476,13.1548862 37.8099688,13.1151679 37.7884006,13.0162264 L37.1917067,10.9443621 C37.1728057,10.8457881 37.0928597,10.8261049 36.9949105,10.8261049 L34.1732541,10.8261049 C34.0735094,10.8261049 33.9926341,10.8457829 33.9746624,10.9443621 L33.3824837,13.0168565 C33.360905,13.1160657 33.2818359,13.1556003 33.1811933,13.1556003 L31.2096093,13.1556003 L31.2222152,13.1548862 Z M26.448763,11.0830009 C27.2179811,11.0830009 27.8703806,10.4697686 27.8703806,9.66070086 L27.8703806,4.21353843 C27.8703806,3.44405783 27.2179811,2.79223594 26.448763,2.79223594 L24.2768284,2.79223594 C24.1402425,2.79223594 24.0800323,2.85163232 24.0800323,2.98957285 L24.0800323,10.8849395 C24.0800323,11.0235993 24.1402792,11.0832687 24.2768284,11.0832687 L26.448763,11.0832687 L26.448763,11.0830009 Z M22.0060311,13.1548652 C21.8676443,13.1548652 21.8083372,13.0951958 21.8083372,12.9578906 L21.8083372,0.917430259 C21.8083372,0.778770443 21.8676443,0.719463313 22.0060311,0.719463313 L26.447923,0.719463313 C28.6980342,0.719463313 30.1196517,2.16040185 30.1196517,4.39119206 L30.1196517,9.48411829 C30.1196517,11.7345445 28.6980342,13.155847 26.447923,13.155847 L22.0060311,13.155847 L22.0060311,13.1548652 Z" id="name"></path>
                </g>
            </g>
        </g>
    </g>
</svg>