<svg width="225" height="184" viewBox="0 0 225 184" xmlns="http://www.w3.org/2000/svg"><title>intro</title><g fill="none" fill-rule="evenodd"><path d="M25.967 21.815c-2.457 0-4.467 2.01-4.467 4.467v110.104c0 2.456.01 2.468 2.467 2.468h176.43c2.458 0 2.468-.012 2.468-2.468V26.282c0-2.457-2.01-4.467-4.467-4.467H25.968z" fill="#9CA7AD" fill-rule="nonzero"/><path d="M198.398 21.815H25.968c-2.458 0-4.468 2.01-4.468 4.467v112.572h181.365V26.282c0-2.457-2.01-4.467-4.467-4.467z" stroke="#7E8C94" stroke-width="2"/><path fill="#E6EEF2" fill-rule="nonzero" d="M203.417 138.853H20.947L1.5 176.303h221.365"/><path d="M196.075 154.106l-5.38-10.362c-.212-.408-.63-.66-1.088-.66H34.757c-.457 0-.876.252-1.086.66l-5.38 10.36c-.424.816.167 1.79 1.086 1.79h165.612c.92 0 1.51-.974 1.087-1.788" stroke="#A4B8C2" fill="#CFDAE0" fill-rule="nonzero"/><path stroke="#7E8C94" stroke-width="2" stroke-linecap="round" stroke-linejoin="round" d="M203.417 138.853H20.947L1.5 176.303h221.365z"/><path d="M1.5 176.303c0 3.69 3.215 6.684 7.182 6.684h207.002c3.966 0 7.18-2.993 7.18-6.684H1.5z" fill="#E6EEF2" fill-rule="nonzero"/><path d="M1.5 176.303c0 3.69 3.215 6.684 7.182 6.684h207.002c3.966 0 7.18-2.993 7.18-6.684H1.5z" stroke="#7E8C94" stroke-width="2" stroke-linecap="round" stroke-linejoin="round"/><path fill="#F7F9FA" fill-rule="nonzero" d="M28.015 131.086H196.35V28.798H28.015"/><path fill="#C0C5C7" fill-rule="nonzero" d="M27.986 33.882h168.54v-5.085H27.985"/><path fill="#FFF" fill-rule="nonzero" d="M38.657 122.36h47.86V40.204h-47.86"/><path stroke="#C9ECE2" fill="#DDF4ED" fill-rule="nonzero" d="M43.983 98.6H81.19V78.386H43.984z"/><path fill="#FFF" fill-rule="nonzero" d="M93.98 122.36h91.534V40.204H93.98"/><path d="M104.672 49.303h14.493M105.048 62.303h63.868M44.28 49.303h11.665M44.28 56.303h31.128M44.28 63.303h31.704M105.048 71.303h67.96M44.28 70.303h22.588M105.048 80.303h68.174M105.048 90.303h60.208M105.048 99.992h44.705" stroke="#BCC8CF" stroke-width="2"/><path d="M125.6 179.97H98.764c-.854 0-1.546-.696-1.546-1.557v-2.24h29.93v2.24c0 .86-.694 1.557-1.548 1.557z" stroke="#7E8C94" stroke-width="2"/><path d="M133.718 162.738H89.31c-2.138 0-4 1.247-4.513 3.022l-2.828 9.79h59.09l-2.827-9.79c-.513-1.775-2.376-3.022-4.515-3.022" fill="#CFDAE0" fill-rule="nonzero"/><path d="M133.718 162.738H89.31c-2.138 0-4 1.247-4.513 3.022l-2.828 9.79h59.09l-2.827-9.79c-.513-1.775-2.376-3.022-4.515-3.022z" stroke="#7E8C94" stroke-width="2"/><path stroke="#C9ECE2" fill="#DDF4ED" fill-rule="nonzero" d="M170.525 119.913h11.78v-4.904h-11.78z"/><g><path d="M224.406 28.297c0 15.398-12.483 27.882-27.88 27.882-15.4 0-27.883-12.485-27.883-27.883S181.125.417 196.525.417c15.398 0 27.88 12.482 27.88 27.88" fill="#FFF" fill-rule="nonzero"/><path d="M221.92 28.416c0 14.044-11.386 25.43-25.43 25.43s-25.428-11.386-25.428-25.43 11.384-25.43 25.428-25.43 25.43 11.386 25.43 25.43" fill="#FEE9E5" fill-rule="nonzero"/><path d="M221.92 28.416c0 14.044-11.386 25.43-25.43 25.43s-25.428-11.386-25.428-25.43 11.384-25.43 25.428-25.43 25.43 11.386 25.43 25.43" stroke="#FEC3B8" stroke-width="2"/><path d="M196.648 28.28V2.99c-.053 0-.105-.003-.158-.003-13.998 0-25.352 11.31-25.426 25.292h25.584z" fill="#FEC3B8" fill-rule="nonzero"/><path stroke="#7E8C94" stroke-width="3" stroke-linecap="round" stroke-linejoin="round" d="M196.69 18.422v10.042h-12.417"/></g></g></svg>