<?xml version="1.0" encoding="UTF-8"?>
<svg width="286px" height="208px" viewBox="0 0 286 208" version="1.1" xmlns="http://www.w3.org/2000/svg" xmlns:xlink="http://www.w3.org/1999/xlink">
    <!-- Generator: Sketch 46.2 (44496) - http://www.bohemiancoding.com/sketch -->
    <title>Illustration / login</title>
    <desc>Created with Sketch.</desc>
    <defs>
        <path d="M2.59189851,0.446428206 L2.59189851,6.34234934 C2.59189851,8.83575571 5.85979629,11.050533 7.46492384,12.428775 C5.85979629,13.8070171 2.59189851,16.0211464 2.59189851,18.5139047 L2.59189851,25.7232705 L15.5171659,25.7232705 L15.5171659,18.5139047 C15.5171659,16.0211464 12.2492681,13.8070171 10.6441405,12.428775 C12.2492681,11.050533 15.5171659,8.83575571 15.5171659,6.34234934 L15.5171659,0.446428206 L2.59189851,0.446428206 Z" id="path-1"></path>
    </defs>
    <g id="Mockups---Danish-version" stroke="none" stroke-width="1" fill="none" fill-rule="evenodd">
        <g id="Login" transform="translate(-801.000000, -265.000000)">
            <g id="Box" transform="translate(281.000000, 155.000000)">
                <g id="Illustration-/-login" transform="translate(518.296947, 110.000000)">
                    <g id="Page-1" transform="translate(31.982370, 0.000000)">
                        <path d="M211.008233,101.942722 C211.008233,157.97608 165.583114,203.4012 109.5488,203.4012 C53.5144864,203.4012 8.0893667,157.97608 8.0893667,101.942722 C8.0893667,45.9084084 53.5144864,0.483288754 109.5488,0.483288754 C165.583114,0.483288754 211.008233,45.9084084 211.008233,101.942722 Z" id="Fill-1" fill="#F7FCFA"></path>
                        <path d="M24.9672,45.3154 C22.5102,45.3154 20.5002,47.3254 20.5002,49.7824 L20.5002,159.8864 C20.5002,162.3424 20.5102,162.3544 22.9672,162.3544 L199.3982,162.3544 C201.8552,162.3544 201.8652,162.3424 201.8652,159.8864 L201.8652,49.7824 C201.8652,47.3254 199.8552,45.3154 197.3982,45.3154 L24.9672,45.3154 Z" id="Fill-3" fill="#9CA7AD"></path>
                        <path d="M197.3982,45.3154 L24.9672,45.3154 C22.5102,45.3154 20.5002,47.3254 20.5002,49.7824 L20.5002,162.3544 L201.8652,162.3544 L201.8652,49.7824 C201.8652,47.3254 199.8552,45.3154 197.3982,45.3154 Z" id="Stroke-5" stroke="#7E8C94" stroke-width="2"></path>
                        <polygon id="Fill-7" fill="#E6EEF2" points="202.4172 162.3525 19.9472 162.3525 0.5002 199.8025 221.8652 199.8025"></polygon>
                        <path d="M195.0754,177.6055 L189.6944,167.2435 C189.4834,166.8365 189.0644,166.5835 188.6074,166.5835 L33.7584,166.5835 C33.3004,166.5835 32.8814,166.8365 32.6714,167.2435 L27.2894,177.6055 C26.8664,178.4205 27.4574,179.3945 28.3764,179.3945 L193.9884,179.3945 C194.9074,179.3945 195.4984,178.4205 195.0754,177.6055" id="Fill-9" stroke="#A4B8C2" fill="#CFDAE0"></path>
                        <polygon id="Stroke-11" stroke="#7E8C94" stroke-width="2" stroke-linecap="round" stroke-linejoin="round" points="202.4172 162.3525 19.9472 162.3525 0.5002 199.8025 221.8652 199.8025"></polygon>
                        <path d="M0.5002,199.8025 L0.5002,199.8025 C0.5002,203.4935 3.71524444,206.4865 7.68157075,206.4865 L214.683829,206.4865 C218.650156,206.4865 221.8652,203.4935 221.8652,199.8025 L0.5002,199.8025 Z" id="Fill-13" fill="#E6EEF2"></path>
                        <path d="M0.5002,199.8025 L0.5002,199.8025 C0.5002,203.4935 3.71524444,206.4865 7.68157075,206.4865 L214.683829,206.4865 C218.650156,206.4865 221.8652,203.4935 221.8652,199.8025 L0.5002,199.8025 Z" id="Stroke-15" stroke="#7E8C94" stroke-width="2" stroke-linecap="round" stroke-linejoin="round"></path>
                        <polygon id="Fill-17" fill="#F7F9FA" points="27.015 154.586 195.35 154.586 195.35 52.298 27.015 52.298"></polygon>
                        <polygon id="Fill-19" fill="#C0C5C7" points="26.9855982 57.382 195.525 57.382 195.525 52.297 26.9855982 52.297"></polygon>
                        <polygon id="Fill-21" fill="#FFFFFF" points="37.657 145.859 85.517 145.859 85.517 63.705 37.657 63.705"></polygon>
                        <polygon id="Fill-22" stroke="#C9ECE2" fill="#DDF4ED" points="42.983 122.099 80.191 122.099 80.191 101.887 42.983 101.887"></polygon>
                        <polygon id="Fill-23" fill="#FFFFFF" points="92.979 145.859 184.514 145.859 184.514 63.705 92.979 63.705"></polygon>
                        <path d="M103.6721,72.8027 L118.1651,72.8027" id="Stroke-24" stroke="#BED5E7" stroke-width="2"></path>
                        <path d="M104.0481,85.8027 L167.9161,85.8027" id="Stroke-25" stroke="#BCC8CF" stroke-width="2"></path>
                        <path d="M43.28,72.8027 L54.945,72.8027" id="Stroke-26" stroke="#BCC8CF" stroke-width="2"></path>
                        <path d="M43.28,79.8027 L74.408,79.8027" id="Stroke-27" stroke="#BCC8CF" stroke-width="2"></path>
                        <path d="M43.28,86.8027 L74.984,86.8027" id="Stroke-28" stroke="#BCC8CF" stroke-width="2"></path>
                        <path d="M104.0481,94.8027 L172.0071,94.8027" id="Stroke-29" stroke="#BCC8CF" stroke-width="2"></path>
                        <path d="M43.28,93.8027 L65.868,93.8027" id="Stroke-30" stroke="#BCC8CF" stroke-width="2"></path>
                        <path d="M104.0481,103.8027 L172.2221,103.8027" id="Stroke-31" stroke="#BCC8CF" stroke-width="2"></path>
                        <path d="M104.0481,113.8027 L164.2561,113.8027" id="Stroke-32" stroke="#BCC8CF" stroke-width="2"></path>
                        <path d="M104.0481,123.4922 L148.7531,123.4922" id="Stroke-33" stroke="#BED5E7" stroke-width="2"></path>
                        <path d="M124.6003,203.4697 L97.7643,203.4697 C96.9103,203.4697 96.2183,202.7737 96.2183,201.9127 L96.2183,199.6737 L126.1473,199.6737 L126.1473,201.9127 C126.1473,202.7737 125.4543,203.4697 124.6003,203.4697 Z" id="Stroke-34" stroke="#7E8C94" stroke-width="2"></path>
                        <path d="M132.717938,186.2376 L88.3111364,186.2376 C86.1720305,186.2376 84.309565,187.484772 83.7969938,189.260234 L80.9685999,199.0486 L140.0614,199.0486 L137.233006,189.260234 C136.720435,187.484772 134.857044,186.2376 132.717938,186.2376" id="Fill-35" fill="#CFDAE0"></path>
                        <path d="M132.717938,186.2376 L88.3111364,186.2376 C86.1720305,186.2376 84.309565,187.484772 83.7969938,189.260234 L80.9685999,199.0486 L140.0614,199.0486 L137.233006,189.260234 C136.720435,187.484772 134.857044,186.2376 132.717938,186.2376 Z" id="Stroke-36" stroke="#7E8C94" stroke-width="2"></path>
                        <polygon id="Fill-37" stroke="#C9ECE2" fill="#DDF4ED" points="169.525 143.413 181.306 143.413 181.306 138.509 169.525 138.509"></polygon>
                    </g>
                    <g id="Page-1" transform="translate(253.982370, 30.750546) rotate(5.000000) translate(-253.982370, -30.750546) translate(244.982370, 17.250546)">
                        <mask id="mask-2" fill="white">
                            <use xlink:href="#path-1"></use>
                        </mask>
                        <use id="Clip-2" fill="#FFFFFF" xlink:href="#path-1"></use>
                        <polygon id="Fill-4" fill="#DDF4ED" points="2.5921577 19.6251164 2.5921577 24.9294367 15.5516503 24.9294367 15.5516503 19.6251164 9.09857875 17.6850804"></polygon>
                        <path d="M15.4902871,6.34241414 L15.4902871,1.02578232 L2.2677978,1.02578232 L2.2677978,6.34241414 C2.2677978,9.34188869 4.85775239,10.0300377 6.24061124,11.1516818 C7.01963874,11.7834571 7.01963874,13.0729266 6.24061124,13.7047019 C4.85775239,14.825698 2.2677978,16.2207873 2.2677978,18.5139695 L2.2677978,25.0371301 L15.4902871,25.0371301 L15.4902871,18.5139695 C15.4902871,15.6363142 12.5380337,14.8529129 11.3337728,13.5200291 C10.7945769,12.9232445 10.7945769,11.9324913 11.3337728,11.3363546 C12.5380337,10.0034708 15.4902871,9.43195716 15.4902871,6.34241414 Z" id="Stroke-5" stroke="#C9ECE2" stroke-width="2" stroke-linecap="round"></path>
                        <path d="M16.6762912,26.0486448 L1.21707454,26.0486448 C0.654065589,26.0486448 0.198215439,25.7336996 0.198215439,25.3452019 L0.198215439,24.7520877 C0.198215439,24.3635901 0.654065589,24.0486448 1.21707454,24.0486448 L16.6762912,24.0486448 C17.2393002,24.0486448 17.6951503,24.3635901 17.6951503,24.7520877 L17.6951503,25.3452019 C17.6951503,25.7336996 17.2393002,26.0486448 16.6762912,26.0486448" id="Fill-7" fill="#C9ECE2"></path>
                        <path d="M16.6762912,2.02578232 L1.21707454,2.02578232 C0.654065589,2.02578232 0.198215439,1.71077547 0.198215439,1.32259312 L0.198215439,0.729362834 C0.198215439,0.340397856 0.654065589,0.025782321 1.21707454,0.025782321 L16.6762912,0.025782321 C17.2393002,0.025782321 17.6951503,0.340397856 17.6951503,0.729362834 L17.6951503,1.32259312 C17.6951503,1.71077547 17.2393002,2.02578232 16.6762912,2.02578232" id="Fill-9" fill="#C9ECE2"></path>
                    </g>
                    <g id="Page-1" transform="translate(270.468268, 99.000000) rotate(14.000000) translate(-270.468268, -99.000000) translate(256.968268, 85.000000)" stroke="#C9ECE2" fill="#DDF4ED">
                        <path d="M26.2507366,0.815540364 C25.9229665,0.325099299 25.3657575,-0.000242792606 24.7332828,-0.000242792606 L1.85493551,-0.000242792606 C0.963886646,-0.000242792606 0.224583161,0.643157613 0.0679819297,1.49050381 C0.0279211497,1.63982126 0,1.79399457 0,1.95545165 L0,5.03042 C0,6.03558139 0.815783156,6.85136455 1.82094454,6.85136455 C2.82610593,6.85136455 3.64188909,6.03558139 3.64188909,5.03042 L3.64188909,3.6416463 L11.4731646,3.6416463 L11.4731646,23.8614145 L10.4582915,23.8614145 C9.45313011,23.8614145 8.63734696,24.6771977 8.63734696,25.6823591 C8.63734696,26.6875205 9.45313011,27.5033036 10.4582915,27.5033036 L16.1044336,27.5033036 C17.1095949,27.5033036 17.9253781,26.6875205 17.9253781,25.6823591 C17.9253781,24.6771977 17.1095949,23.8614145 16.1044336,23.8614145 L15.1150537,23.8614145 L15.1150537,3.6416463 L23.0203809,3.6416463 L23.0203809,5.03042 C23.0203809,6.03558139 23.8361641,6.85136455 24.8413255,6.85136455 C25.8464869,6.85136455 26.66227,6.03558139 26.66227,5.03042 L26.66227,1.95545165 C26.66227,1.52206685 26.5032409,1.12874283 26.2507366,0.815540364" id="Fill-1" stroke-width="1.5"></path>
                    </g>
                    <g id="Page-1" transform="translate(22.982370, 81.500000) rotate(-10.000000) translate(-22.982370, -81.500000) translate(4.982370, 62.000000)" stroke-linecap="round" stroke="#C9ECE2" stroke-linejoin="round">
                        <g id="Group-56" transform="translate(0.000000, 0.530560)">
                            <path d="M31.6012064,25.0922521 L31.6012064,3.89582608 C31.6012064,1.83450108 29.9310712,0.164365908 27.870468,0.164365908 L7.94865683,0.164365908" id="Stroke-14" stroke-width="2"></path>
                            <path d="M11.7664386,31.1270409 L32.0289169,31.1270409" id="Stroke-16" stroke-width="2"></path>
                            <path d="M7.9490177,6.24563554 L7.9490177,25.14328" id="Stroke-18" stroke-width="2"></path>
                            <path d="M4.20701994,0.155849229 C2.1478602,0.155849229 0.463289975,1.8411412 0.463289975,3.8995792 L0.463289975,6.10525469 L7.95074991,6.10525469 L7.95074991,3.8995792 C7.95074991,1.8411412 6.26690144,0.155849229 4.20701994,0.155849229" id="Stroke-20" stroke-width="2"></path>
                            <path d="M7.93840794,25.1478992 L7.93840794,27.3542964 C7.93840794,29.4127344 9.62369992,31.0973047 11.6821379,31.0973047" id="Stroke-22" stroke-width="2"></path>
                            <path d="M11.6824988,31.097449 C13.7423803,31.097449 15.4262288,29.412157 15.4262288,27.353719 L15.4262288,25.1487653" id="Stroke-24" stroke-width="2"></path>
                            <path d="M31.8027919,31.097449 C33.8619516,31.097449 35.5465218,29.412157 35.5465218,27.353719 L35.5465218,25.1487653 L28.0583402,25.1487653" id="Stroke-26" stroke-width="2"></path>
                            <path d="M4.41986474,0.157942311 L8.18019501,0.157942311" id="Stroke-28" stroke-width="2"></path>
                            <path d="M15.4076075,25.1613238 L35.4008722,25.1613238" id="Stroke-30" stroke-width="2"></path>
                            <path d="M11.9454332,6.44505574 L16.0060125,6.44505574" id="Stroke-32" stroke-width="2"></path>
                            <path d="M12.063151,11.8793465 L27.5909333,11.8793465" id="Stroke-34" stroke-width="2"></path>
                            <path d="M12.063151,15.8025041 L27.5909333,15.8025041" id="Stroke-36" stroke-width="2"></path>
                            <path d="M12.063151,19.937063 L24.792699,19.937063" id="Stroke-38" stroke-width="2"></path>
                            <path d="M10.580888,33.7018206 L10.6848204,37.2181985" id="Stroke-40" stroke-width="1.657"></path>
                            <path d="M6.30602042,32.5218996 L3.82391374,35.6066696" id="Stroke-42" stroke-width="1.657"></path>
                            <path d="M5.15785662,28.4810964 L1.13119969,28.4363477" id="Stroke-44" stroke-width="1.657"></path>
                        </g>
                    </g>
                    <g id="Lock" transform="translate(87.982370, 48.000000)">
                        <path d="M110,55.5467541 C110,85.9225244 85.3757703,110.546754 55,110.546754 C24.6242297,110.546754 0,85.9225244 0,55.5467541 C0,25.1709838 24.6242297,0.546754123 55,0.546754123 C85.3757703,0.546754123 110,25.1709838 110,55.5467541" id="Fill-59" fill="#FEFEFE"></path>
                        <path d="M104.800882,55.3605336 C104.800882,82.9678524 82.4209966,105.348755 54.8136778,105.348755 C27.206359,105.348755 4.82545614,82.9678524 4.82545614,55.3605336 C4.82545614,27.7532148 27.206359,5.37332941 54.8136778,5.37332941 C82.4209966,5.37332941 104.800882,27.7532148 104.800882,55.3605336" id="Fill-60" fill="#FEFEFE"></path>
                        <path d="M103.441714,55.3599332 C103.441714,82.4217559 81.5040353,104.360432 54.4422127,104.360432 C27.3803901,104.360432 5.44171405,82.4217559 5.44171405,55.3599332 C5.44171405,28.2981106 27.3803901,6.3604319 54.4422127,6.3604319 C81.5040353,6.3604319 103.441714,28.2981106 103.441714,55.3599332 Z" id="Stroke-61" stroke="#5CBBA0" stroke-width="3" stroke-linecap="round" stroke-linejoin="round"></path>
                        <path d="M75.8515026,85.3660825 L33.3320603,85.3660825 C30.5341931,85.3660825 28.245029,83.0769184 28.245029,80.2790512 L28.245029,46.1572801 C28.245029,43.3594129 30.5341931,41.0702488 33.3320603,41.0702488 L75.8515026,41.0702488 C78.6493698,41.0702488 80.9385339,43.3594129 80.9385339,46.1572801 L80.9385339,80.2790512 C80.9385339,83.0769184 78.6493698,85.3660825 75.8515026,85.3660825" id="Fill-62" fill="#F8F9FC"></path>
                        <polygon id="Fill-63" fill="#8FE2CA" points="28.3746466 74.9635104 80.5095954 74.9635104 80.5095954 50.4226541 28.3746466 50.4226541"></polygon>
                        <path d="M75.8515026,85.3660825 L33.3320603,85.3660825 C30.5341931,85.3660825 28.245029,83.0769184 28.245029,80.2790512 L28.245029,46.1572801 C28.245029,43.3594129 30.5341931,41.0702488 33.3320603,41.0702488 L75.8515026,41.0702488 C78.6493698,41.0702488 80.9385339,43.3594129 80.9385339,46.1572801 L80.9385339,80.2790512 C80.9385339,83.0769184 78.6493698,85.3660825 75.8515026,85.3660825 Z" id="Stroke-64" stroke="#5CBBA0" stroke-width="2" stroke-linecap="round" stroke-linejoin="round"></path>
                        <path d="M73.7491343,40.9881441 L73.7491343,31.8111397 C73.7491343,21.5099014 65.3209409,13.0817079 55.0197025,13.0817079 L55.0186851,13.0817079 C44.7174468,13.0817079 36.2892533,21.5099014 36.2892533,31.8111397 L36.2892533,33.9385362 L42.3509598,33.9385362 L42.3509598,31.769426 C42.3509598,24.7961236 48.0565741,19.0915267 55.0298766,19.0915267 C62.0021617,19.0915267 67.707776,24.7961236 67.707776,31.769426 L67.707776,40.9596568 L73.7491343,40.9881441 Z" id="Fill-65" fill="#FEFEFE"></path>
                        <path d="M73.7491343,40.9881441 L73.7491343,31.8111397 C73.7491343,21.5099014 65.3209409,13.0817079 55.0197025,13.0817079 L55.0186851,13.0817079 C44.7174468,13.0817079 36.2892533,21.5099014 36.2892533,31.8111397 L36.2892533,33.9385362 L42.3509598,33.9385362 L42.3509598,31.769426 C42.3509598,24.7961236 48.0565741,19.0915267 55.0298766,19.0915267 C62.0021617,19.0915267 67.707776,24.7961236 67.707776,31.769426 L67.707776,40.9596568 L73.7491343,40.9881441 Z" id="Stroke-66" stroke="#5CBBA0" stroke-width="2" stroke-linecap="round" stroke-linejoin="round"></path>
                        <path d="M59.437891,59.9845433 C59.437891,57.4308536 57.3674692,55.3604319 54.8137795,55.3604319 C52.2600898,55.3604319 50.1896681,57.4308536 50.1896681,59.9845433 C50.1896681,61.7487258 51.178587,63.281957 52.6314431,64.0612902 C52.6060079,64.1955878 52.5897294,64.3319203 52.5897294,64.4733397 L52.5897294,67.4848623 C52.5897294,68.6843842 53.5705091,69.6661813 54.7710485,69.6661813 L54.7710485,69.6661813 C55.9705704,69.6661813 56.9523675,68.6843842 56.9523675,67.4848623 L56.9523675,64.4733397 C56.9523675,64.346164 56.936089,64.2230578 56.9147234,64.1009691 C58.411328,63.3348621 59.437891,61.7812828 59.437891,59.9845433" id="Fill-67" fill="#FEFEFE"></path>
                        <path d="M59.437891,59.9845433 C59.437891,57.4308536 57.3674692,55.3604319 54.8137795,55.3604319 C52.2600898,55.3604319 50.1896681,57.4308536 50.1896681,59.9845433 C50.1896681,61.7487258 51.178587,63.281957 52.6314431,64.0612902 C52.6060079,64.1955878 52.5897294,64.3319203 52.5897294,64.4733397 L52.5897294,67.4848623 C52.5897294,68.6843842 53.5705091,69.6661813 54.7710485,69.6661813 C55.9705704,69.6661813 56.9523675,68.6843842 56.9523675,67.4848623 L56.9523675,64.4733397 C56.9523675,64.346164 56.936089,64.2230578 56.9147234,64.1009691 C58.411328,63.3348621 59.437891,61.7812828 59.437891,59.9845433 Z" id="Stroke-68" stroke="#5CBBA0" stroke-width="1.534" stroke-linecap="round" stroke-linejoin="round"></path>
                        <path d="M28.3742396,50.4225524 L80.5091885,50.4225524" id="Stroke-69" stroke="#5CBBA0" stroke-width="2.156" stroke-linecap="round" stroke-linejoin="round"></path>
                        <path d="M28.3742396,74.2706568 L80.5091885,74.2706568" id="Stroke-70" stroke="#5CBBA0" stroke-width="2" stroke-linecap="round" stroke-linejoin="round"></path>
                    </g>
                </g>
            </g>
        </g>
    </g>
</svg>