<?xml version="1.0" encoding="utf-8"?>
<!-- Generator: Adobe Illustrator 21.1.0, SVG Export Plug-In . SVG Version: 6.00 Build 0)  -->
<svg version="1.1" id="Layer_1" xmlns="http://www.w3.org/2000/svg"  x="0px" y="0px"
	 viewBox="0 0 262.5 17" style="enable-background:new 0 0 262.5 17;" xml:space="preserve">
<style type="text/css">
	.st0{fill:#FFFFFF;}
</style>
<g>
	<path class="st0" d="M4.1,3.3C3.8,3.5,3.7,3.8,3.7,4.2c0,0.4,0.2,0.7,0.5,0.9c0.3,0.2,1.1,0.5,2.3,0.8c1.2,0.3,2.1,0.7,2.8,1.3
		c0.7,0.6,1,1.4,1,2.6s-0.4,2-1.3,2.7c-0.8,0.7-2,1.1-3.3,1.1c-2,0-3.8-0.7-5.4-2.2l1.7-2.1C3.3,10.4,4.6,11,5.7,11
		c0.5,0,0.9-0.1,1.2-0.3s0.4-0.5,0.4-0.9c0-0.4-0.2-0.7-0.5-0.9C6.6,8.7,6,8.4,5,8.2C3.6,7.9,2.5,7.4,1.8,6.8c-0.7-0.6-1-1.4-1-2.6
		c0-1.2,0.4-2.1,1.3-2.8c0.9-0.6,1.9-1,3.2-1c0.8,0,1.7,0.1,2.5,0.4C8.7,1.2,9.4,1.6,10,2.1L8.6,4.2C7.5,3.4,6.4,2.9,5.2,2.9
		C4.8,2.9,4.4,3.1,4.1,3.3z"/>
	<path class="st0" d="M15.6,3.3c-0.3,0.2-0.4,0.5-0.4,0.9c0,0.4,0.2,0.7,0.5,0.9C16,5.2,16.8,5.5,18,5.8c1.2,0.3,2.1,0.7,2.8,1.3
		c0.7,0.6,1,1.4,1,2.6s-0.4,2-1.3,2.7c-0.8,0.7-2,1.1-3.3,1.1c-2,0-3.8-0.7-5.4-2.2l1.7-2.1c1.4,1.2,2.6,1.8,3.8,1.8
		c0.5,0,0.9-0.1,1.2-0.3s0.4-0.5,0.4-0.9c0-0.4-0.2-0.7-0.5-0.9c-0.3-0.2-0.9-0.4-1.9-0.7c-1.5-0.3-2.5-0.8-3.2-1.4
		c-0.7-0.6-1-1.4-1-2.6c0-1.2,0.4-2.1,1.3-2.8c0.9-0.6,1.9-1,3.2-1c0.8,0,1.7,0.1,2.5,0.4c0.8,0.3,1.6,0.7,2.2,1.2l-1.4,2.1
		c-1.1-0.8-2.2-1.2-3.4-1.2C16.2,2.9,15.9,3.1,15.6,3.3z"/>
	<path class="st0" d="M24.1,0.8H27v5.2l4.8-5.2h3.5l-5,5.6c0.4,0.6,1.2,1.7,2.4,3.4c1.2,1.6,2,2.9,2.6,3.7h-3.3l-3.7-5L27,9.8v3.6
		h-2.8V0.8z"/>
	<path class="st0" d="M44.4,1.9h0.8v13.2h-0.8V1.9z"/>
	<path class="st0" d="M59.9,4.6c-0.5-0.1-0.9-0.2-1.3-0.2c-0.7,0-1.2,0.1-1.6,0.4c-0.4,0.3-0.6,0.6-0.6,1.1c0,0.4,0.1,0.7,0.3,1
		c0.2,0.3,0.5,0.5,0.8,0.6c0.3,0.1,0.8,0.3,1.3,0.5c0.7,0.2,1.2,0.4,1.6,0.6c0.4,0.2,0.8,0.5,1,0.8c0.3,0.4,0.4,0.8,0.4,1.4
		c0,0.5-0.1,1-0.4,1.4c-0.3,0.4-0.7,0.7-1.2,0.9c-0.5,0.2-1.1,0.3-1.8,0.3c-0.7,0-1.3-0.1-2-0.4c-0.6-0.3-1.2-0.6-1.7-1.1l0.4-0.8
		c0.4,0.4,0.9,0.8,1.5,1c0.6,0.2,1.1,0.4,1.7,0.4c0.7,0,1.3-0.2,1.8-0.5c0.4-0.3,0.7-0.7,0.7-1.2c0-0.4-0.1-0.7-0.3-1
		c-0.2-0.3-0.5-0.5-0.8-0.6c-0.3-0.1-0.8-0.3-1.4-0.5c-0.7-0.2-1.2-0.4-1.6-0.6c-0.4-0.2-0.7-0.5-1-0.8c-0.3-0.4-0.4-0.8-0.4-1.4
		c0-0.5,0.1-0.9,0.4-1.3c0.3-0.4,0.7-0.7,1.2-0.9c0.5-0.2,1.1-0.3,1.8-0.3c0.5,0,1.1,0.1,1.6,0.2c0.5,0.2,1,0.4,1.4,0.6l-0.4,0.8
		C60.8,4.9,60.3,4.7,59.9,4.6z"/>
	<path class="st0" d="M69.8,13.4l-2.6-3.8l-1.7,1.7v2.1h-0.9V3h0.9V10l3.9-4h1.1l-2.8,2.8l3.1,4.5H69.8z"/>
	<path class="st0" d="M74.8,6.4c0.5-0.3,1-0.4,1.6-0.5v0.9c-0.8,0-1.4,0.2-1.9,0.7c-0.5,0.5-0.7,1.1-0.8,1.9v3.9h-0.9V6h0.9v1.7
		C74,7.2,74.4,6.7,74.8,6.4z"/>
	<path class="st0" d="M79.3,3.4c0.1,0.1,0.2,0.3,0.2,0.5c0,0.2-0.1,0.3-0.2,0.5c-0.1,0.1-0.3,0.2-0.5,0.2c-0.2,0-0.3-0.1-0.5-0.2
		c-0.1-0.1-0.2-0.3-0.2-0.5c0-0.2,0.1-0.3,0.2-0.5s0.3-0.2,0.5-0.2C79,3.2,79.2,3.3,79.3,3.4z M78.4,6h0.9v7.3h-0.9V6z"/>
	<path class="st0" d="M84,4.1c-0.3,0.3-0.4,0.6-0.4,1.1v1h2.2V7h-2.2v6.4h-0.9V7h-0.9V6.2h0.9V5.3c0-0.5,0.1-0.9,0.3-1.3
		c0.2-0.4,0.5-0.7,0.8-0.8c0.3-0.2,0.7-0.3,1.1-0.3c0.5,0,0.9,0.1,1.3,0.3L85.9,4c-0.3-0.2-0.7-0.3-1-0.3C84.6,3.7,84.2,3.8,84,4.1z
		"/>
	<path class="st0" d="M91.2,12.8c-0.5,0.3-1,0.5-1.6,0.5c-0.6,0-1-0.2-1.3-0.5c-0.3-0.3-0.5-0.9-0.5-1.6V7h-1l0-0.7h1.1V4.3h0.9v1.9
		l2.4,0V7h-2.4v4.2c0,0.9,0.3,1.4,1,1.4c0.4,0,0.8-0.1,1.2-0.4L91.2,12.8z"/>
	<path class="st0" d="M96.1,6.9c-0.3-0.1-0.7-0.1-1-0.1c-0.5,0-0.8,0.1-1.1,0.3c-0.3,0.2-0.4,0.5-0.4,0.8c0,0.3,0.1,0.5,0.2,0.6
		c0.2,0.2,0.3,0.3,0.6,0.4c0.2,0.1,0.5,0.2,1,0.3c0.5,0.1,0.9,0.3,1.2,0.4s0.6,0.4,0.8,0.6c0.2,0.3,0.3,0.6,0.3,1.1
		c0,0.7-0.3,1.2-0.8,1.5s-1.1,0.5-1.9,0.5c-0.5,0-1-0.1-1.5-0.3s-0.9-0.4-1.2-0.8l0.4-0.7c0.3,0.3,0.7,0.5,1.1,0.7s0.9,0.3,1.3,0.3
		c0.5,0,0.9-0.1,1.2-0.3c0.3-0.2,0.5-0.5,0.5-0.9c0-0.3-0.1-0.5-0.2-0.7c-0.2-0.2-0.4-0.3-0.6-0.4c-0.2-0.1-0.6-0.2-1-0.3
		c-0.5-0.1-0.9-0.3-1.2-0.4C93.4,9.4,93.2,9.2,93,9c-0.2-0.3-0.3-0.6-0.3-1c0-0.6,0.2-1.1,0.7-1.5C93.8,6.1,94.4,6,95.2,6
		C95.6,6,96,6,96.4,6.1s0.7,0.3,1,0.5l-0.4,0.7C96.8,7.1,96.5,7,96.1,6.9z"/>
	<path class="st0" d="M105.7,6.5c0.5,0.3,1,0.8,1.3,1.3c0.3,0.6,0.4,1.2,0.4,1.9c0,0.7-0.1,1.3-0.4,1.9c-0.3,0.6-0.7,1-1.2,1.3
		c-0.5,0.3-1.1,0.5-1.8,0.5c-0.7,0-1.3-0.2-1.8-0.5c-0.5-0.3-0.9-0.7-1.2-1.3v4.4H100V6h0.9v1.7c0.3-0.5,0.7-1,1.2-1.3
		c0.5-0.3,1.1-0.5,1.8-0.5C104.6,6,105.2,6.1,105.7,6.5z M105.1,12.2c0.4-0.2,0.7-0.6,1-1c0.2-0.4,0.3-0.9,0.3-1.5
		c0-0.6-0.1-1-0.3-1.5c-0.2-0.4-0.6-0.8-1-1c-0.4-0.2-0.9-0.4-1.4-0.4c-0.5,0-1,0.1-1.4,0.4c-0.4,0.2-0.7,0.6-1,1
		c-0.2,0.4-0.4,0.9-0.4,1.5c0,0.6,0.1,1.1,0.4,1.5c0.2,0.4,0.6,0.8,1,1c0.4,0.2,0.9,0.4,1.4,0.4C104.2,12.6,104.7,12.4,105.1,12.2z"
		/>
	<path class="st0" d="M111.8,6.4c0.5-0.3,1-0.4,1.6-0.5v0.9c-0.8,0-1.4,0.2-1.9,0.7c-0.5,0.5-0.7,1.1-0.8,1.9v3.9h-0.9V6h0.9v1.7
		C111,7.2,111.3,6.7,111.8,6.4z"/>
	<path class="st0" d="M120.2,6.5c0.6,0.3,1,0.7,1.3,1.3c0.3,0.6,0.5,1.2,0.5,1.9c0,0.7-0.2,1.4-0.5,1.9c-0.3,0.6-0.8,1-1.3,1.3
		s-1.2,0.5-1.9,0.5c-0.7,0-1.3-0.2-1.9-0.5c-0.6-0.3-1-0.8-1.3-1.3c-0.3-0.6-0.5-1.2-0.5-1.9c0-0.7,0.2-1.3,0.5-1.9s0.8-1,1.3-1.3
		c0.6-0.3,1.2-0.5,1.9-0.5C119,6,119.6,6.1,120.2,6.5z M116.9,7.2c-0.4,0.2-0.7,0.6-1,1c-0.2,0.4-0.3,0.9-0.3,1.5
		c0,0.6,0.1,1.1,0.3,1.5c0.2,0.4,0.6,0.8,1,1c0.4,0.2,0.9,0.4,1.4,0.4s1-0.1,1.4-0.4c0.4-0.2,0.7-0.6,1-1c0.2-0.4,0.3-0.9,0.3-1.5
		c0-0.6-0.1-1.1-0.3-1.5c-0.2-0.4-0.6-0.8-1-1c-0.4-0.2-0.9-0.4-1.4-0.4S117.3,6.9,116.9,7.2z"/>
	<path class="st0" d="M130.7,6v6.6c0,0.7-0.1,1.3-0.4,1.9c-0.3,0.5-0.7,0.9-1.3,1.2s-1.2,0.4-1.9,0.4c-1.1,0-2.1-0.4-3-1.1l0.4-0.7
		c0.4,0.3,0.8,0.6,1.2,0.7s0.9,0.3,1.3,0.3c0.8,0,1.5-0.2,2-0.7c0.5-0.5,0.7-1.1,0.7-2v-1.2c-0.3,0.5-0.6,0.9-1.1,1.2
		c-0.5,0.3-1,0.4-1.7,0.4c-0.7,0-1.2-0.2-1.7-0.5c-0.5-0.3-0.9-0.7-1.2-1.3s-0.4-1.1-0.4-1.8c0-0.7,0.1-1.3,0.4-1.8
		c0.3-0.5,0.7-0.9,1.2-1.2c0.5-0.3,1.1-0.4,1.8-0.4c0.6,0,1.2,0.1,1.7,0.4c0.5,0.3,0.8,0.7,1.1,1.2V6H130.7z M128.5,11.9
		c0.4-0.2,0.7-0.6,0.9-1c0.2-0.4,0.3-0.9,0.3-1.4c0-0.5-0.1-1-0.3-1.4s-0.5-0.7-0.9-1c-0.4-0.2-0.9-0.4-1.4-0.4s-1,0.1-1.4,0.4
		c-0.4,0.2-0.7,0.6-0.9,1c-0.2,0.4-0.3,0.9-0.3,1.4c0,0.5,0.1,1,0.3,1.4c0.2,0.4,0.5,0.7,0.9,1c0.4,0.2,0.9,0.4,1.4,0.4
		C127.6,12.3,128.1,12.2,128.5,11.9z"/>
	<path class="st0" d="M133.7,3h0.9v10.4h-0.9V3z"/>
	<path class="st0" d="M138.8,3.4c0.1,0.1,0.2,0.3,0.2,0.5c0,0.2-0.1,0.3-0.2,0.5c-0.1,0.1-0.3,0.2-0.5,0.2c-0.2,0-0.3-0.1-0.5-0.2
		c-0.1-0.1-0.2-0.3-0.2-0.5c0-0.2,0.1-0.3,0.2-0.5s0.3-0.2,0.5-0.2C138.6,3.2,138.7,3.3,138.8,3.4z M137.9,6h0.9v7.3h-0.9V6z"/>
	<path class="st0" d="M148.3,6v6.6c0,0.7-0.1,1.3-0.4,1.9c-0.3,0.5-0.7,0.9-1.3,1.2s-1.2,0.4-1.9,0.4c-1.1,0-2.1-0.4-3-1.1l0.4-0.7
		c0.4,0.3,0.8,0.6,1.2,0.7s0.9,0.3,1.3,0.3c0.8,0,1.5-0.2,2-0.7c0.5-0.5,0.7-1.1,0.7-2v-1.2c-0.3,0.5-0.6,0.9-1.1,1.2
		c-0.5,0.3-1,0.4-1.7,0.4c-0.7,0-1.2-0.2-1.7-0.5c-0.5-0.3-0.9-0.7-1.2-1.3s-0.4-1.1-0.4-1.8c0-0.7,0.1-1.3,0.4-1.8
		c0.3-0.5,0.7-0.9,1.2-1.2c0.5-0.3,1.1-0.4,1.8-0.4c0.6,0,1.2,0.1,1.7,0.4c0.5,0.3,0.8,0.7,1.1,1.2V6H148.3z M146.1,11.9
		c0.4-0.2,0.7-0.6,0.9-1c0.2-0.4,0.3-0.9,0.3-1.4c0-0.5-0.1-1-0.3-1.4s-0.5-0.7-0.9-1c-0.4-0.2-0.9-0.4-1.4-0.4s-1,0.1-1.4,0.4
		c-0.4,0.2-0.7,0.6-0.9,1c-0.2,0.4-0.3,0.9-0.3,1.4c0,0.5,0.1,1,0.3,1.4c0.2,0.4,0.5,0.7,0.9,1c0.4,0.2,0.9,0.4,1.4,0.4
		C145.2,12.3,145.7,12.2,146.1,11.9z"/>
	<path class="st0" d="M156.7,7.1c0.6,0.7,0.9,1.7,0.8,2.9h-6.1c0.1,0.8,0.4,1.4,0.9,1.9c0.5,0.5,1.1,0.7,1.9,0.7
		c0.5,0,0.9-0.1,1.3-0.3s0.7-0.4,1-0.7l0.5,0.5c-0.4,0.4-0.8,0.7-1.3,0.9s-1,0.3-1.6,0.3c-0.7,0-1.3-0.2-1.9-0.5
		c-0.6-0.3-1-0.7-1.3-1.3c-0.3-0.6-0.5-1.2-0.5-1.9c0-0.7,0.2-1.3,0.5-1.9c0.3-0.6,0.7-1,1.3-1.3c0.6-0.3,1.2-0.5,1.9-0.5
		C155.3,6,156.1,6.3,156.7,7.1z M156.7,9.3c0-0.8-0.3-1.4-0.8-1.8c-0.5-0.5-1.1-0.7-1.8-0.7c-0.7,0-1.4,0.2-1.8,0.7
		c-0.5,0.5-0.8,1.1-0.9,1.8H156.7z"/>
	<path class="st0" d="M172.2,13.4H171l-3.7-4.8l-2,2.2v2.6h-1V3.6h1v6l5.4-6h1.2L168,7.8L172.2,13.4z"/>
	<path class="st0" d="M179.1,6.5c0.6,0.3,1,0.7,1.3,1.3c0.3,0.6,0.5,1.2,0.5,1.9c0,0.7-0.2,1.4-0.5,1.9c-0.3,0.6-0.8,1-1.3,1.3
		s-1.2,0.5-1.9,0.5c-0.7,0-1.3-0.2-1.9-0.5c-0.6-0.3-1-0.8-1.3-1.3c-0.3-0.6-0.5-1.2-0.5-1.9c0-0.7,0.2-1.3,0.5-1.9s0.8-1,1.3-1.3
		c0.6-0.3,1.2-0.5,1.9-0.5C177.9,6,178.6,6.1,179.1,6.5z M175.8,7.2c-0.4,0.2-0.7,0.6-1,1c-0.2,0.4-0.3,0.9-0.3,1.5
		c0,0.6,0.1,1.1,0.3,1.5c0.2,0.4,0.6,0.8,1,1c0.4,0.2,0.9,0.4,1.4,0.4s1-0.1,1.4-0.4c0.4-0.2,0.7-0.6,1-1c0.2-0.4,0.3-0.9,0.3-1.5
		c0-0.6-0.1-1.1-0.3-1.5c-0.2-0.4-0.6-0.8-1-1c-0.4-0.2-0.9-0.4-1.4-0.4S176.2,6.9,175.8,7.2z"/>
	<path class="st0" d="M194.7,6.7c0.5,0.5,0.7,1.2,0.7,2.1v4.5h-1V9.1c0-0.7-0.2-1.2-0.6-1.6s-0.9-0.6-1.6-0.6
		c-0.8,0-1.4,0.3-1.8,0.8c-0.4,0.5-0.7,1.2-0.7,2.1v3.6h-1V9.1c0-0.7-0.2-1.2-0.6-1.6s-0.9-0.6-1.6-0.6c-0.8,0-1.4,0.3-1.8,0.8
		c-0.4,0.5-0.7,1.2-0.7,2.1v3.6h-0.9V6h0.9v1.7c0.2-0.6,0.6-1,1.1-1.3c0.5-0.3,1.1-0.4,1.8-0.4c0.7,0,1.3,0.2,1.7,0.5
		c0.5,0.3,0.8,0.8,0.9,1.5c0.2-0.7,0.6-1.1,1.1-1.5c0.5-0.3,1.1-0.5,1.8-0.5C193.6,6,194.2,6.2,194.7,6.7z"/>
	<path class="st0" d="M204.1,6.5c0.5,0.3,1,0.8,1.3,1.3c0.3,0.6,0.4,1.2,0.4,1.9c0,0.7-0.1,1.3-0.4,1.9c-0.3,0.6-0.7,1-1.2,1.3
		c-0.5,0.3-1.1,0.5-1.8,0.5c-0.7,0-1.3-0.2-1.8-0.5c-0.5-0.3-0.9-0.7-1.2-1.3v4.4h-0.9V6h0.9v1.7c0.3-0.5,0.7-1,1.2-1.3
		c0.5-0.3,1.1-0.5,1.8-0.5C203,6,203.6,6.1,204.1,6.5z M203.5,12.2c0.4-0.2,0.7-0.6,1-1c0.2-0.4,0.3-0.9,0.3-1.5
		c0-0.6-0.1-1-0.3-1.5c-0.2-0.4-0.6-0.8-1-1c-0.4-0.2-0.9-0.4-1.4-0.4c-0.5,0-1,0.1-1.4,0.4c-0.4,0.2-0.7,0.6-1,1
		c-0.2,0.4-0.4,0.9-0.4,1.5c0,0.6,0.1,1.1,0.4,1.5c0.2,0.4,0.6,0.8,1,1c0.4,0.2,0.9,0.4,1.4,0.4C202.7,12.6,203.1,12.4,203.5,12.2z"
		/>
	<path class="st0" d="M213.7,7.1c0.6,0.7,0.9,1.7,0.8,2.9h-6.1c0.1,0.8,0.4,1.4,0.9,1.9c0.5,0.5,1.1,0.7,1.9,0.7
		c0.5,0,0.9-0.1,1.3-0.3s0.7-0.4,1-0.7l0.5,0.5c-0.4,0.4-0.8,0.7-1.3,0.9s-1,0.3-1.6,0.3c-0.7,0-1.3-0.2-1.9-0.5
		c-0.6-0.3-1-0.7-1.3-1.3c-0.3-0.6-0.5-1.2-0.5-1.9c0-0.7,0.2-1.3,0.5-1.9c0.3-0.6,0.7-1,1.3-1.3c0.6-0.3,1.2-0.5,1.9-0.5
		C212.2,6,213.1,6.3,213.7,7.1z M213.7,9.3c0-0.8-0.3-1.4-0.8-1.8c-0.5-0.5-1.1-0.7-1.8-0.7c-0.7,0-1.4,0.2-1.8,0.7
		c-0.5,0.5-0.8,1.1-0.9,1.8H213.7z"/>
	<path class="st0" d="M220.6,12.8c-0.5,0.3-1,0.5-1.6,0.5c-0.6,0-1-0.2-1.3-0.5c-0.3-0.3-0.5-0.9-0.5-1.6V7h-1l0-0.7h1.1V4.3h0.9
		v1.9l2.4,0V7h-2.4v4.2c0,0.9,0.3,1.4,1,1.4c0.4,0,0.8-0.1,1.2-0.4L220.6,12.8z"/>
	<path class="st0" d="M228,7.1c0.6,0.7,0.9,1.7,0.8,2.9h-6.1c0.1,0.8,0.4,1.4,0.9,1.9c0.5,0.5,1.1,0.7,1.9,0.7
		c0.5,0,0.9-0.1,1.3-0.3s0.7-0.4,1-0.7l0.5,0.5c-0.4,0.4-0.8,0.7-1.3,0.9s-1,0.3-1.6,0.3c-0.7,0-1.3-0.2-1.9-0.5
		c-0.6-0.3-1-0.7-1.3-1.3c-0.3-0.6-0.5-1.2-0.5-1.9c0-0.7,0.2-1.3,0.5-1.9c0.3-0.6,0.7-1,1.3-1.3c0.6-0.3,1.2-0.5,1.9-0.5
		C226.5,6,227.4,6.3,228,7.1z M228,9.3c0-0.8-0.3-1.4-0.8-1.8c-0.5-0.5-1.1-0.7-1.8-0.7c-0.7,0-1.4,0.2-1.8,0.7
		c-0.5,0.5-0.8,1.1-0.9,1.8H228z"/>
	<path class="st0" d="M237.1,6.7c0.5,0.5,0.7,1.2,0.7,2.1v4.5h-1V9.1c0-0.7-0.2-1.2-0.6-1.6c-0.4-0.4-0.9-0.6-1.6-0.6
		c-0.8,0-1.4,0.2-1.8,0.7s-0.7,1.1-0.8,1.8v3.9h-0.9V6h0.9v1.7c0.3-0.6,0.6-1,1.1-1.3c0.5-0.3,1.1-0.4,1.8-0.4
		C235.9,6,236.6,6.2,237.1,6.7z"/>
	<path class="st0" d="M243.7,6.8c-0.5,0-1,0.1-1.4,0.4s-0.7,0.6-1,1c-0.2,0.4-0.4,0.9-0.4,1.5s0.1,1.1,0.4,1.5c0.2,0.4,0.6,0.8,1,1
		s0.9,0.4,1.4,0.4c0.5,0,0.9-0.1,1.3-0.3s0.7-0.4,1-0.7l0.5,0.6c-0.3,0.4-0.7,0.7-1.2,0.9c-0.5,0.2-1,0.3-1.7,0.3
		c-0.7,0-1.3-0.2-1.9-0.5s-1-0.8-1.3-1.3c-0.3-0.6-0.5-1.2-0.5-1.9c0-0.7,0.2-1.3,0.5-1.9c0.3-0.6,0.7-1,1.3-1.3
		c0.6-0.3,1.2-0.5,1.9-0.5c0.6,0,1.1,0.1,1.6,0.3c0.5,0.2,0.9,0.4,1.2,0.8l-0.5,0.6C245.3,7.1,244.5,6.8,243.7,6.8z"/>
	<path class="st0" d="M254.1,7.1c0.6,0.7,0.9,1.7,0.8,2.9h-6.1c0.1,0.8,0.4,1.4,0.9,1.9c0.5,0.5,1.1,0.7,1.9,0.7
		c0.5,0,0.9-0.1,1.3-0.3s0.7-0.4,1-0.7l0.5,0.5c-0.4,0.4-0.8,0.7-1.3,0.9c-0.5,0.2-1,0.3-1.6,0.3c-0.7,0-1.3-0.2-1.9-0.5
		s-1-0.7-1.3-1.3c-0.3-0.6-0.5-1.2-0.5-1.9c0-0.7,0.2-1.3,0.5-1.9c0.3-0.6,0.7-1,1.3-1.3c0.6-0.3,1.2-0.5,1.9-0.5
		C252.7,6,253.5,6.3,254.1,7.1z M254.1,9.3c0-0.8-0.3-1.4-0.8-1.8s-1.1-0.7-1.8-0.7c-0.7,0-1.4,0.2-1.8,0.7
		c-0.5,0.5-0.8,1.1-0.9,1.8H254.1z"/>
	<path class="st0" d="M259.3,6.4c0.5-0.3,1-0.4,1.6-0.5v0.9c-0.8,0-1.4,0.2-1.9,0.7c-0.5,0.5-0.7,1.1-0.8,1.9v3.9h-0.9V6h0.9v1.7
		C258.5,7.2,258.8,6.7,259.3,6.4z"/>
</g>
</svg>
